<?xml version="1.0" encoding="UTF-8"?>
<svg xmlns="http://www.w3.org/2000/svg" version="1.1" viewBox="0 0 1105 586">
  <defs>
    <style>
      .cls-1 {
        fill: #0fb;
      }
    </style>
  </defs>
  <!-- Generator: Adobe Illustrator 28.7.1, SVG Export Plug-In . SVG Version: 1.2.0 Build 142)  -->
  <g>
    <g id="Laag_1">
      <path class="cls-1" d="M752,.5h12c0,.2,0,.4-.1.6,0-.2.1-.4.2-.6h2.4c-1.4,5.7-2.7,11.5-4,17.3,1.5-5.9,3.2-11.7,5.1-17.3h2.4c-3.7,10.8-6.6,22.4-9.3,34,3.3-11.8,7-23.3,12-34h2.5c-7.4,15.7-12.1,33.5-16.6,50.9,5.2-17.9,11.4-35.6,21.3-50.9h2.7c-13.2,19.8-19.9,44.2-26.3,67.4l-.2.9c7.4-24.2,16.3-48.9,34.1-68.3h3c-21.3,22.4-30.1,52.5-38.4,80.6-.6,2.1-1.2,4.2-1.9,6.2,9.8-30.9,21.6-63.9,51.6-86.8h3.6c-33.2,24.2-44.6,60.6-54.9,93.5-13.9,44.2-25.8,82.3-84.9,77.4h0c-38.7-2.7-83.9,9.4-120.8,27.6h0c-.4,1.9-1.7,2.6-3.9,2-1.9,1-3.9,2-5.7,3,1,2,1.7,3.7,2,5.1.2.6.3,1.2.3,1.7.6-.3,1.2-.6,1.9-.9,38.9-19.2,86.7-32,126.5-30.2h0c55.3,3.4,67.1-31.8,80.9-73.6,12.5-37.5,26.7-80.3,75.2-105.7h4.7c-50.6,24.8-65,68.3-77.6,106.3-14.2,42.7-26.1,78.6-83.3,75.1h0c-39.3-1.8-86.7,10.9-125.3,29.9-1.1.5-2.2,1.1-3.3,1.6-.3.6-.8.8-1.6.8-2.7,1.4-5.3,2.8-7.9,4.3.9,1.6,1.5,3,1.9,4.2.3.9.5,1.7.6,2.4,1.5-.8,3-1.6,4.6-2.3,40.5-20,90.7-33.4,131-32.5h0c53.6,2.1,65.3-31.2,79.4-71.5,14.1-40.2,30.5-87.2,92.8-113.6,2.1-1.5,4.3-3.1,6.6-4.7h3.8c-3.3,2.2-6.3,4.3-9,6.3h-.2c-61.4,26.1-77.7,72.7-91.7,112.6-14.4,41.1-26.3,75.1-81.7,72.9h0c-39.9-1-89.6,12.3-129.8,32.2-5.4,2.7-10.6,5.5-15.6,8.3.8,1.3,1.4,2.4,1.8,3.2.5,1.2.9,2.2,1.1,3,2.3-1.2,4.7-2.4,7-3.6,42.2-20.9,94.7-34.8,135.6-34.8h0c52,.8,63.5-30.7,77.8-69.5,14.8-40.2,32.3-88,99.7-116.3,6.2-4.3,13.7-9.1,22.1-14.4h4c-9.5,6-17.8,11.4-24.7,16.1h-.2c-66.6,28-84,75.4-98.6,115.3-14.5,39.5-26.3,71.8-80,70.9-40.5,0-92.6,13.8-134.4,34.5-6.4,3.2-12.5,6.5-18.3,9.9.6.9,1.1,1.7,1.5,2.2.8,1.3,1.5,2.5,2,3.4,2.9-1.6,5.9-3.1,9-4.6,43.9-21.7,98.9-36.2,140.2-37.1h0c50.4-.4,61.8-30.3,76.2-67.6,15.4-40.1,34-88.6,106.7-118.9,7.7-5,17.1-10.8,27.7-17.4,3.5-2.2,7.2-4.4,11-6.8h4.1c-4.8,2.9-9.3,5.8-13.7,8.5-10.6,6.6-20.1,12.4-27.7,17.4h-.2c-71.8,30-90.3,78-105.6,117.8-14.6,38.1-26.3,68.6-78.3,69h0c-41,.9-95.6,15.3-139.1,36.9-3.1,1.5-6.2,3.1-9.2,4.7,1,2.3.6,2.8-1.4.8-3.3,1.8-6.6,3.7-9.7,5.6.3.4.5.8.7,1.1.3.5.6.9.8,1.3.3,0,.2.1,0,.1.9,1.6.9,2.2-1.2,1.7-.5,0-.8-.5-1.6-1.4-.3-.3-.7-.8-1.1-1.3-2.5,1.6-5,3.2-7.4,4.8,1.1,2.1,2,4,2.7,5.4,6.8-4.1,14-8.1,21.5-11.8,45.5-22.6,103.2-37.5,145-39.5h0c48.8-1.6,60.2-30,74.5-65.9,16-40,35.6-89.1,113.7-121.3,6.6-4.1,14.3-8.7,23-13.9,10-6,21.1-12.7,33-20h4c-12.9,8-25,15.3-35.7,21.7-8.7,5.2-16.5,9.9-23,13.9h-.2c-77.2,31.9-96.7,80.6-112.5,120.2-14.7,36.6-26.3,65.6-76.6,67.2-41.5,1.9-98.7,16.7-144,39.2-7.6,3.8-14.9,7.8-21.8,12,1.1,2.8,1,3.8-.8,3.5-.5-.1-1.3-.6-2.3-1.5-2.1,1.3-4.1,2.7-6.1,4,1,2.3,1.7,4.2,2.1,5.7,7.2-4.5,14.9-8.7,23-12.7,47.3-23.5,107.5-38.8,149.7-41.7h0c47.3-2.7,58.5-29.7,72.8-64.2,16.6-39.8,37.2-89.4,120.7-123.6,5.1-3,10.9-6.4,17.3-10.1,15.9-9.2,35.3-20.5,56-33.6h4c-21.6,13.8-42,25.6-58.7,35.3-6.4,3.7-12.2,7.1-17.3,10.1h-.2c-82.7,33.9-103.2,83.1-119.6,122.6-14.6,35.2-26.1,62.8-74.9,65.6h0c-42,2.9-101.8,18.2-148.7,41.5-8.3,4.1-16.2,8.5-23.5,13.1.4,2.1-.2,2.9-1.8,2.7-.4,0-.9-.3-1.5-.6-1.8,1.2-3.6,2.4-5.3,3.6.8,2.5,1.3,4.4,1.5,5.9,7.7-4.9,15.9-9.5,24.7-13.8,49-24.3,111.8-40,154.4-44h0c45.8-3.8,56.9-29.5,71.2-62.7,17.1-39.6,38.6-89.6,127.7-125.8,3.3-1.8,6.7-3.8,10.4-5.8,21.2-11.9,50.1-28.1,80-47.6h3.9c-30.9,20.3-60.8,37.1-82.7,49.3-3.7,2.1-7.3,4.1-10.4,5.8h-.1c-88.3,36-109.7,85.5-126.6,124.8-14.6,33.8-25.9,60.1-73.1,64h0c-42.3,4-104.9,19.6-153.5,43.8-9.2,4.6-17.8,9.4-25.8,14.6-.2.8-.6,1.3-1.3,1.6-.4.1-.8.1-1.2,0-1.7,1.2-3.4,2.3-5,3.5.6,2.7.9,4.8.7,6.3,8.2-5.4,17.2-10.4,26.7-15.2,50.7-25.2,116.2-41.1,159.2-46.3h0c44.3-4.8,55.3-29.4,69.5-61.2,17.5-39.3,39.9-89.6,134.7-127.9l1.7-.9c25.4-13.6,65.5-35.2,105.4-62.2h3.8c-40.9,27.9-82.1,50-108.1,64l-1.8,1h-.1c-94,38-116.2,87.9-133.6,126.9-14.5,32.5-25.7,57.6-71.3,62.5h0c-42.7,5.1-107.9,20.9-158.3,46-12.7,6.3-24.5,13.2-34.7,20.7.4,3.3.2,5.6-.5,7.1,8.9-6.1,18.8-11.7,29.4-17,52.3-26.1,120.7-42.2,163.8-48.5h0c42.9-5.8,53.7-29.3,67.7-59.9,18-39.1,41.2-89.5,141.8-130,29-14.8,77.6-40.5,123.6-72.9h3.7c-46.8,33.3-96.7,59.6-126.2,74.7h-.1c-99.8,40.2-122.9,90.2-140.7,128.9-14.3,31.2-25.4,55.1-69.5,61.1h0c-43,6.3-111,22.3-163.1,48.2-13.4,6.7-25.8,14-36.3,22,0,5.2-1.7,7.9-4.8,8.7-.5.1-1,.2-1.6.2,0,.8,0,1.6,0,2.4,10.7-8.2,23.3-15.7,36.9-22.4,54-26.9,125.1-43.1,168.5-50.6h0c41.5-6.8,52.1-29.2,66-58.6,18.3-38.8,42.3-89.3,148.9-132,32.7-15.9,89.3-45.5,139.5-82.6h3.6c-50.9,38-108.8,68.3-142.1,84.5h0c-105.8,42.3-129.5,92.5-147.7,130.9-14.2,29.9-25,52.8-67.7,59.8-43.2,7.4-114,23.6-167.8,50.4-14.3,7.1-27.3,15-38.3,23.6-.7,4.5-2.7,6.9-6,7.8,0,1.2-.2,2.3-.4,3.4,18.8-14.8,43.3-27.3,69.7-37.7,49.9-19.7,106.4-31.9,142.2-39.1h0c40.1-7.7,50.6-29.2,64.3-57.3,18.7-38.4,43.3-89,156-133.9,36.5-16.8,101.3-50.6,154.9-92.4h3.5c-54.1,42.7-120.3,77.2-157.4,94.2h0c-111.9,44.5-136.3,94.7-154.8,132.8-13.9,28.6-24.6,50.6-65.9,58.5-35.8,7.1-92.1,19.4-141.8,39-27.4,10.8-52.7,23.8-71.6,39.3-1.1,2.9-2.7,4.8-5,5.9-.3,1.9-.7,3.7-1.2,5.2,52.3-43.4,153.4-66.2,210.8-79.1,3.4-.8,6.6-1.5,8.2-1.9h0c38.8-8.6,49.1-29.2,62.5-56.2,19-38.1,44.2-88.6,163.1-135.7h0c40.3-17.6,113.7-55.9,169.7-102.1h3.4c-56.4,47.1-131.2,86.1-172.1,104h0c-118.1,46.8-143.1,96.9-161.9,134.7-13.7,27.4-24.2,48.5-64.1,57.3h0c-3.6.8-5.9,1.3-8.2,1.9-59.1,13.3-164.8,37.1-214.8,83-.2.2-.5.5-.7.7-.3.3-.6.6-.9.9-.7,3.3-1.7,6-3.1,8.2,47.9-42.9,142.4-65.7,203.2-80.3,8.9-2.1,17-4.1,24-5.9h0c37.5-9.4,47.6-29.3,60.8-55.1,19.3-37.7,45-88.1,170.2-137.5,44.3-18.4,126.6-61.3,183.9-111.9h3.3c-57.6,51.4-141.4,95.2-186.2,113.8h0c-124.4,49.1-149.9,99-169,136.5-13.4,26.3-23.7,46.5-62.3,56.2h0c-7.3,1.8-15.3,3.8-24,5.9-63,15.2-162.6,39.2-207.8,85.2-1.3,3.6-3,6.4-5.1,8.7-.2.7-.4,1.4-.7,2,44.2-44.6,137.1-67.9,200.9-83.9,13.7-3.4,26-6.5,36-9.4,36.2-10.2,46.1-29.3,59-54,19.5-37.4,45.6-87.4,177.3-139.2,45.5-17.9,129.7-61.7,187.3-112.4,3.5-3.1,6.9-6.2,10.1-9.3h3.2c-3.8,3.6-7.7,7.2-11.7,10.7-57.8,50.9-142.3,94.8-188,112.8-130.9,51.5-156.8,101.1-176.1,138.2-13.1,25.1-23.3,44.6-60.4,55.1-10.3,2.9-22.5,6-36.1,9.4-66.1,16.6-163.6,41.1-204.8,88.8-.6.9-1.2,1.8-1.8,2.6-1.4,4.1-3.3,7.7-5.5,10.7-.9,2.4-1.9,4.7-3.1,6.8-.6,1.1-1.2,2.1-1.9,3.1-1.3,3.2-2.7,6.2-4.3,8.9-1,2.5-2.1,4.8-3.3,7.1-6.1,15.6-16.1,27.7-27.2,36.5-9,7.1-18.9,12-28.2,14.7-9.4,2.8-18.2,3.4-25.2,1.8-4.4-1-8-2.7-10.6-5.3-11.4-11.4-20.2-21.1-27.1-29.5-.3.6-.6,1.2-.8,1.9-13,29-33.5,67.2-33.7,67.4-8.8,10.8-18.6,19.4-29,25.9h0c-31.3,19.7-69,21.5-109.2,11.6-38-9.3-78.4-29-117.8-53.8v-4.8c35.1,21,71,37.6,105,46,40.5,9.9,78.4,8.1,109.7-12.2,9.8-6.3,18.9-14.5,27.2-24.6h0c1.7-1.8,20.3-34.2,34.7-61.3,1.5-2.9,3-5.7,4.4-8.4-2.4-3.5-4.4-6.6-5.9-9.5-7.3,12.1-15.9,26.4-23.6,38.8-9.7,15.7-17.9,28.6-20,30.8-8.1,9.8-16.9,17.7-26.2,24-32.6,21.9-72.4,23.9-114.5,13.6-29.6-7.3-60.5-20.7-90.8-37.5v-2.4c30.6,17.1,61.6,30.7,91.4,38,41.5,10.2,80.5,8.2,112.5-13.3,9.2-6.2,17.9-14,25.8-23.7h0c1.9-2.1,10.1-14.9,19.7-30.6,8-13,17-27.8,24.4-40.2-1.9-3.9-3-7-3.4-9.6-.2-1.2-.3-2.4-.2-3.4-6.7,9.7-14.7,21.6-22.3,33.1-13,19.5-25.1,37.5-28.7,41.2-7.6,9.2-15.8,16.7-24.5,22.8-33.4,23.4-74.5,25.5-117.8,14.9-25.2-6.2-51.3-16.8-77-30v-2.4c25.9,13.4,52.2,24.1,77.6,30.4,42.6,10.5,82.9,8.4,115.7-14.5,8.6-6,16.7-13.5,24.2-22.5h0c3.5-3.6,15.5-21.6,28.5-41,9.9-14.8,20.4-30.5,28.1-41.2-1.3-4.5,0-6.9,2.6-7.8,1-.3,2.1-.4,3.3-.2,0,0,.1-.2.2-.3-.9-1.4-1.6-2.6-2.1-3.6-2.5-5-1.3-6.8,1.5-6.6,1.8.1,4.4,1.5,6.8,3.6.7-1.2.6-2.8,0-4.3-1-1.1-1.9-2.1-2.6-3-.8.4-1.6.7-2.7,1-6.7,2.3-30.8,35.6-50,62.1-10.9,14.9-20.1,27.7-24,31.7-7,8.5-14.6,15.6-22.6,21.4-34.4,25.2-77,27.5-121.6,16.5-20.7-5.1-41.9-13.1-62.9-22.9v-2.3c21.2,10,42.6,18.1,63.5,23.3,44,10.8,85.8,8.6,119.5-16.1,7.9-5.8,15.3-12.7,22.2-21.1h0c3.7-3.9,13-16.7,23.8-31.6,19.4-26.7,43.8-60.4,51.2-62.9h.1c.8-.2,1.4-.4,1.9-.7-.1-.1-.2-.3-.3-.4-3.5-4.4-4.5-6.4-4-6.8-.6,0-1.1.1-1.8.2-9.4,1.2-38.6,38.7-59.8,66.1-9.5,12.2-17.5,22.5-21.5,26.7-6.3,7.6-13.1,14.1-20.3,19.6-35.5,27.4-80,30-126.3,18.5-16-4-32.2-9.6-48.4-16.4v-2.3c16.4,7,32.8,12.7,49,16.7,45.6,11.2,89.3,8.8,124.1-18.1,7-5.4,13.7-11.8,19.9-19.3h0c4-4.1,11.9-14.4,21.4-26.6,21.5-27.7,51-65.7,61.4-66.9h.1c3.8-.2,5.9-1.5,7.1-3.4-1.4-3.6-2.2-5.9,1.4-4.2.2-1.6.1-3.2,0-4.7-2.2,3-6.1,5-13.1,4.5-12.4-.1-46.2,40.9-69.4,68.9-8.4,10.1-15.3,18.6-19.5,22.9-5.5,6.6-11.3,12.3-17.4,17.3-36.9,30.3-83.6,33.1-131.9,21.1-11.1-2.8-22.2-6.3-33.4-10.4v-2.2c11.3,4.2,22.7,7.9,34,10.6,47.5,11.8,93.5,9.2,129.7-20.6,6-4.9,11.7-10.6,17.1-17.1h0c4.1-4.3,11.1-12.7,19.4-22.8,23.4-28.4,57.7-69.9,71.3-69.8h0c11.6.8,13-6.6,14.2-12.9.2-.8.3-1.6.5-2.3-3,5.3-8.2,9.1-19.4,7.4h0c-15.7-1.6-54.3,42.8-79.2,71.5-7.2,8.2-13.2,15.2-17.2,19.3-4.4,5.3-9,10-13.9,14.3-38.5,34.2-88.2,37.1-138.9,24.4-5.9-1.5-11.8-3.2-17.6-5v-2.2c6.1,1.9,12.2,3.7,18.3,5.2,50,12.5,98.9,9.6,136.7-23.9,4.7-4.2,9.3-8.9,13.7-14.1h0c4-4.2,10-11.1,17.2-19.3,25.2-29,64.3-74,81.3-72.2h0c14.6,2.2,17.5-6.3,20.2-13.8,1.3-3.6,2.5-7,4.8-9.2,5.9-5.7,18.3-2.8,55.1,27.2,12.7,2.8,24.9,6.6,36.2,10.1,17.5,5.4,32.7,10.1,43.4,9.1.4-1,.9-1.9,1.3-2.8v-.5c.8-3,1.8-5.9,3-8.8-8.8-.8-20.1-4.7-33.3-9.1-14-4.8-30.2-10.2-47.5-13.5l-.5-.2c-34.3-27.1-46.3-28.5-52.6-22.2-2.4,2.4-4.1,6-5.8,9.7-4.6,9.8-9.6,20.5-29.3,16.4-19.3-3.3-63,45-89.4,74.1-5.8,6.4-10.8,11.9-14.5,15.7-41.6,49.2-99.8,53.7-158.2,38.7v-2.2c57.8,15,115.5,10.7,156.4-37.8h0c3.7-3.9,8.6-9.3,14.5-15.7,26.7-29.5,71-78.4,91.7-74.8h0c17.8,3.7,22.5-6.1,26.7-15.2,1.8-3.9,3.6-7.6,6.2-10.3,7.2-7.2,20.1-6.1,55.6,21.9,17.4,3.3,33.5,8.8,47.6,13.5,13.3,4.5,24.7,8.4,33.3,9.1.3-.5.5-1.1.8-1.7v-.2s0-.3,0-.3c.9-3.7,2.2-7.2,3.8-10.7-6.8-1.6-15-4.7-24.6-8.2-16-6-35.7-13.4-57.7-17.1l-.5-.2c-33.1-25.1-45.7-24.8-53.1-17.1-2.8,2.9-4.9,6.7-7.1,10.7-6.3,11.5-13.1,23.8-36.2,18-23.3-5.2-72.7,47.5-100.4,77.1-4.3,4.6-8,8.6-11.1,11.8h0c-39,45.9-92.2,53.4-146,43v-2.1c53.2,10.3,105.8,3.1,144.2-42.2h0c3.1-3.2,6.8-7.2,11.1-11.8,28-29.9,78-83.3,102.7-77.8h0c21.3,5.4,27.7-6.1,33.6-16.8,2.3-4.1,4.5-8.1,7.4-11.2,8.3-8.6,21.8-9.4,56.1,16.7,22.1,3.7,41.8,11.1,57.9,17.1,9.6,3.6,17.9,6.7,24.5,8.2v-.2c1.1-4.3,2.6-8.5,4.7-12.5v-.3c0-.1,0-.2.1-.3-4.8-1.7-10.4-4-16.7-6.7-17.4-7.3-40.3-17-67.1-20.9l-.6-.2c-32-23.3-45-21.2-53.5-12-3,3.2-5.5,7.3-8,11.5-8.1,13.4-16.7,27.5-43.6,19.8-27.8-7.3-83.6,50.9-112.2,80.8-2.4,2.5-4.5,4.7-6.8,7.1-36.3,42.6-84.7,52.6-133.8,46.6v-2.1c48.5,6,96.2-3.8,132-45.7h0c1.8-1.9,4.2-4.4,6.9-7.2,29-30.2,85.4-89.1,114.7-81.4h0c25,7.2,33.2-6.2,40.8-18.8,2.6-4.3,5.1-8.4,8.2-11.8,9.3-10.1,23.2-12.7,56.6,11.6,27,3.9,50,13.6,67.4,21,6.1,2.6,11.6,4.9,16.2,6.5,1-3.5,2.4-6.9,4.1-10.3v-.2c.3-1.1.5-2.2.9-3.3-2.8-1.3-5.9-2.7-9.2-4.3-18.2-8.6-44.2-20.9-76-24.9l-.6-.2c-31.1-21.7-44.5-17.7-54-7-3.1,3.5-5.8,7.7-8.6,12-9.9,15.4-20.5,31.7-51.2,22-33-9.7-96.3,55.5-125.2,85.3l-1.5,1.6c-33.6,39.2-77.1,51.3-121.6,49.2v-2.1c43.9,2,86.7-9.8,119.8-48.4h0s1.5-1.7,1.5-1.7c29.2-30.1,93.2-96.1,127.6-85.9h0c28.9,9.1,38.9-6.5,48.4-21.1,2.8-4.4,5.6-8.6,8.7-12.2,10.3-11.6,24.5-16.1,57,6.5,32.1,4.1,58.1,16.4,76.4,25.1,3.2,1.5,6.1,2.9,8.8,4.1.9-2.5,1.9-5,3.2-7.4v-.2c.5-2.2,1.1-4.3,1.9-6.5-.8-.4-1.6-.9-2.5-1.3-18.6-9.9-47.3-25.2-84.4-29.4l-.6-.2c-30.4-20.2-44.2-14.3-54.6-1.9-3,3.6-5.8,7.8-8.7,12.1-11.8,17.6-24.3,36.3-59.1,24.5h0c-18.4-5.9-44.2,7.6-69.2,26.5-25.3,19.1-49.7,43.6-65,59.4-30.8,35.7-69.5,49.4-109.4,50.8v-2.1c39.2-1.5,77.3-14.9,107.5-50h0c15.4-16,40-40.6,65.3-59.7,25.6-19.3,52.2-33.1,71.5-26.9h0c32.9,11.2,45-6.8,56.3-23.6,2.9-4.3,5.7-8.5,8.8-12.2,11.2-13.3,25.8-19.8,57.6,1.3,37.4,4.3,66.3,19.7,85,29.6.7.4,1.4.7,2.1,1.1.6-1.5,1.3-2.9,2-4.3h0c.7-3.4,1.8-6.7,3.2-9.9-18.7-11.2-48.8-28-88.8-32l-.6-.2c-30-18.9-44.1-10.7-55.5,3.6-2.8,3.5-5.5,7.5-8.3,11.5-13.7,19.9-28.3,41.2-67.2,27.3-20.1-6.9-47.1,5.8-73.4,24.3-26.4,18.7-51.9,43.5-68.6,60.7-27.8,32.2-61.9,46.9-97.1,51.4v-2.1c34.6-4.5,68-19,95.3-50.5h0c16.7-17.3,42.3-42.1,68.9-61,26.8-19,54.6-31.8,75.6-24.6h0c37.1,13.3,51.2-7.3,64.4-26.4,2.7-4,5.5-8,8.4-11.6,12.2-15.2,27-24,58.5-4.2,40.1,4,70.3,20.8,89.2,32.1.2-.4.4-.7.6-1.1h0c.9-4.4,2.4-8.7,4.7-13,0-.1,0-.2,0-.3-19.1-12.4-49.7-29.6-91-33.2l-.5-.2c-35.6-21.2-49.3-1.6-64.1,19.8-15.5,22.4-32.3,46.5-75.6,30.3-17.7-6.4-39.7.2-62.1,12.7-32.8,18.3-66.2,49.4-87.5,71.3h0c-24.8,28.5-54.3,43.7-84.9,50.6v-2.2c30-6.9,58.8-21.9,83.1-49.7h0c21.3-22,54.9-53.3,88-71.8,22.9-12.8,45.7-19.5,64.2-12.8h0c41.5,15.5,57.7-7.9,72.7-29.5,15.4-22.2,29.7-42.7,67.1-20.5,41.1,3.7,71.8,20.5,91,33,.9-3.5,2.3-7,4.1-10.5.2-1.4.6-2.8,1-4.2-19.5-13.5-50.5-30.6-92.6-33.9h-.5c-34-19.2-48.4,1.5-64.2,24-17.4,25-36.4,52.2-84.2,33.6h0c-19.3-7.3-42.9-1.2-66.7,11.3-33.9,17.8-68,48.5-90.5,71.7h0c-21.7,24.8-46.8,39.9-72.7,48.5v-2.2c25.4-8.6,49.7-23.4,70.9-47.5h0c22.6-23.3,56.9-54.2,91.1-72.2,24.3-12.8,48.6-19,68.8-11.4h0c45.9,17.8,64.4-8.6,81.3-32.8,16.3-23.4,31.3-44.9,67.1-25,42.1,3.3,73.2,20.2,92.9,33.7.8-2.2,1.8-4.4,3-6.6.4-2.6,1.2-5.3,2.3-8-19.9-14.4-51.5-31.6-94.6-34.6h-.5c-32.5-17.1-47.5,4.5-64.1,28.2-19.3,27.7-40.6,58.2-92.9,37.2h0c-21-8.2-46.2-2.6-71.3,9.9-34.9,17.3-69.7,47.7-93.5,72.1-18.4,20.9-39.1,35.2-60.5,44.9v-2.4c20.8-9.5,40.8-23.5,58.7-43.8h0c23.8-24.6,58.9-55.2,94.1-72.7,25.7-12.7,51.5-18.5,73.4-9.9h0c50.5,20.2,71.2-9.5,90-36.4,17.1-24.6,32.7-46.9,67-29.1,43.2,3,74.9,20.1,95,34.6.5-1,1-2,1.5-2.9.6-3.8,2-7.7,4-11.7-20.3-15.3-52.5-32.7-97-35.4h-.5c-31-15.1-46.6,7.3-63.8,32.1-21.2,30.5-44.8,64.5-101.9,41h0c-22.8-9.2-49.4-4-75.9,8.4-36,16.8-71.5,47-96.5,72.7-15,16.9-31.4,29.7-48.3,39.4v-2.5c16.3-9.5,32-22,46.5-38.3h0c25.1-25.9,60.9-56.2,97.2-73.2,27.1-12.7,54.4-17.9,78-8.4h0c55.2,22.7,78.3-10.5,98.9-40.2,17.8-25.6,33.9-48.7,66.7-33.1,44.4,2.8,76.8,20,97.4,35.3.7-3.9,2.2-8,4.6-12.2,0-.3,0-.6.2-1,.1-.6.2-1.2.4-1.9-20.8-16-53.6-33.3-98.8-35.8h-.5c-29.6-13.2-45.6,9.9-63.4,35.8-23,33.3-49,71.1-110.9,45h0c-24.5-10.2-52.7-5.5-80.5,6.8-37,16.4-73.3,46.3-99.5,73.3h0c-11.4,12.8-23.5,23.4-36,32.2v-2.6c11.9-8.5,23.4-18.7,34.2-30.9h0c26.3-27.1,62.9-57.3,100.2-73.8,28.4-12.6,57.3-17.3,82.6-6.8h0c60,25.3,85.5-11.7,107.9-44.3,18.4-26.7,34.8-50.5,66.2-36.7,45.1,2.5,78,19.5,99.1,35.6.8-2.6,2-5.2,3.5-7.9,0-.6.2-1.2.3-1.8.3-1.7.8-3.4,1.5-5.2-21.3-16.7-54.6-33.9-100.7-36.1h-.4c-28.3-11.4-44.5,12.4-62.9,39.2-24.8,36.3-53.3,78.1-120.1,49.3h0c-26.3-11.1-56-7-85.2,5.2-38,16-75,45.7-102.4,73.9h0c-7.7,8.6-15.7,16.2-23.8,23.1v-2.9c7.5-6.5,14.9-13.6,22-21.5h0c27.5-28.4,64.8-58.4,103.2-74.4,29.8-12.5,60.2-16.7,87.2-5.2h0c64.9,27.9,92.8-13,117.1-48.5,18.9-27.6,35.6-52.1,65.6-40.2,46.1,2.2,79.6,19.3,101.2,36.1.6-1.3,1.3-2.6,2-3.9.1-.8.2-1.7.4-2.6.6-2.6,1.6-5.4,3.1-8.3-21.8-17.4-55.8-34.7-103.1-36.7h-.4c-27-9.8-43.5,14.7-62.2,42.4-26.6,39.4-57.6,85.3-129.4,53.9h0c-28-12.1-59.3-8.6-89.9,3.6-39,15.6-76.8,45.2-105.3,74.6-3.8,4.2-7.7,8.2-11.6,12.1v-3.1c3.3-3.3,6.6-6.7,9.8-10.3h0c28.7-29.6,66.8-59.5,106.2-75.1,31.2-12.4,63.1-16,91.9-3.5h0c69.9,30.6,100.4-14.5,126.4-53.1,19.3-28.5,36.2-53.6,64.9-43.4,47.4,2,81.7,19.3,103.8,36.8v-.2c.2-1.1.4-2.2.7-3.3.7-3,2.1-6.3,4.1-9.7,0-.7.2-1.4.3-2.1-22.3-17.9-57-35.2-105.1-36.9h-.4c-25.7-8.2-42.4,16.8-61.4,45.4-28.3,42.5-61.8,92.9-138.9,58.6h0c-29.8-13.2-62.6-10.3-94.6,1.8-39.7,15-78.1,44.3-107.7,74.7v-3.1c29.6-29.9,67.5-58.5,106.8-73.4,32.5-12.3,66-15.3,96.5-1.8h0c75.1,33.4,108.1-16.1,135.8-57.8,19.5-29.3,36.6-54.9,64-46.4,47.9,1.7,82.7,18.8,105.4,36.6.8-2.7,2-5.6,3.8-8.6,0-1.4.4-3,.9-4.6.2-.6.4-1.3.6-1.9-22.9-18.3-58.1-35.5-106.9-37h-.3c-24.6-6.6-41.3,18.8-60.6,48.2-30,45.7-66.1,100.7-148.4,63.6-31.6-14.2-66-11.9-99.3.1-35.5,12.8-69.8,36.6-98.4,63.4v-3c28.5-26.4,62.4-49.7,97.5-62.4,33.9-12.2,68.9-14.5,101.2,0,80.3,36.2,115.9-17.9,145.4-62.8,19.8-30.1,36.8-56.1,63.1-49.2,48.9,1.5,84.3,18.6,107.5,36.9.6-1.4,1.4-2.9,2.3-4.5,0-1.6.4-3.3,1-5.2.5-1.7,1.3-3.4,2.2-5.3-23.4-18.9-59.4-36.1-109.2-37.4h-.3c-23.4-5.2-40.1,20.6-59.6,50.7-31.6,48.9-70.4,108.8-158.1,68.8h0c-33.4-15.2-69.3-13.6-104-1.7-31.6,10.9-62.2,30.3-89.1,53.3v-2.9c26.7-22.6,57-41.6,88.3-52.3,35.3-12.1,71.8-13.8,105.9,1.8h0c85.7,39.1,123.8-19.8,155-68,19.9-30.7,37-57.2,62-51.7,50.1,1.3,86.3,18.5,110,37.5.1-.2.2-.4.3-.6,0-1.7.5-3.7,1.2-5.8.8-2.2,1.9-4.7,3.4-7.3,0-.5,0-1.1.1-1.7-23.9-19.3-60.5-36.4-111.2-37.5h-.2c-22.3-3.8-39,22.3-58.5,53-33.2,52.2-74.6,117.2-167.8,74.2h0c-35.3-16.2-72.7-15.3-108.7-3.5-28,9.2-55.1,24.8-79.8,44.1v-2.7c24.5-18.9,51.3-34.3,79-43.3,36.6-12,74.7-13,110.6,3.6h0c91.1,42.1,132-22,164.7-73.4,20-31.3,37-58,60.9-54,50.5,1.1,87.3,18,111.6,37.2.2-.8.5-1.6.8-2.5.7-2,1.8-4.2,3.1-6.6,0-1.8.5-3.9,1.3-6.3-24.5-19.5-61.6-36.4-112.8-37.3h-.1c-21.3-2.5-37.8,23.9-57.4,55.1-34.8,55.5-78.9,125.9-177.6,79.8h0c-37.1-17.3-76-17-113.4-5.3-24.5,7.7-48.3,20.2-70.5,35.9v-2.6c22-15.4,45.6-27.7,69.7-35.2,38-11.9,77.5-12.1,115.2,5.4h0c96.7,45.2,140.2-24.3,174.5-79,20-31.9,36.8-58.8,59.7-56.2,51.3.9,88.7,17.7,113.5,37.3.7-1.5,1.4-3.2,2.3-4.8,0-2.2.8-5.1,2.1-8.4.3-.7.6-1.3.9-2-25.1-19.9-62.9-36.8-114.9-37.5h0c-20.3-1.3-36.6,25.3-56.2,57-36.3,58.8-83.1,134.9-187.5,85.7h0c-38.9-18.3-79.3-18.7-118.1-7.2-21.1,6.3-41.7,16.1-61.2,28.6v-2.5c19.4-12.2,39.7-21.8,60.5-28,39.3-11.7,80.4-11.3,119.9,7.3h0c102.4,48.3,148.6-26.8,184.4-84.8,19.9-32.3,36.6-59.4,58.4-58,52.3.7,90.4,17.6,115.8,37.5,2-3.9,4.8-8.3,8.3-12.8-25.6-21.3-65-39.6-120.2-40.2-19.3-.2-35.5,26.6-54.9,58.6-37.7,62.2-87.3,144.2-197.5,91.8-29.5-14.1-59.7-18.5-89.3-15.6-29.4,2.9-58.2,13.2-85.4,28.6v-2.4c27.2-15.2,55.9-25.3,85.2-28.2,30.1-3,60.7,1.5,90.7,15.8,108.2,51.4,157.1-29.5,194.3-90.9,19.8-32.6,36.3-59.9,56.9-59.7,55.7.5,95.6,19,121.5,40.5,1.1-1.3,2.2-2.6,3.3-3.9,7.2-8.1,16.6-16.2,28-22.8,22.6-13,53.2-19.9,90.1-7.9,46.5,15,70.3-2.5,82.1-31.4.3-.7.6-1.4.8-2.1ZM398.1,468.6c0,0-.2.2-.2.3-8.6,9.5-19.2,15.9-29.9,19.4-10.8,3.6-21.7,4.4-31,2.9-6.4-1-12-3.1-16.3-6.2h-.1c-10.3-10.2-18.6-18.9-25.2-26.3-1.4,3.6-3,7.6-4.9,11.9,6.9,8.5,16,18.5,27.8,30.4,2.3,2.3,5.5,3.9,9.4,4.7,6.6,1.4,15,.9,24-1.8,9-2.7,18.6-7.4,27.4-14.3,7.1-5.6,13.7-12.6,19.1-21ZM293.6,456.9c-2.1-2.4-4-4.7-5.8-6.8-1.6,3.2-3.3,6.7-5.2,10.4,1.8,2.6,3.9,5.3,6.2,8.3,1.9-4.3,3.5-8.3,4.8-11.8ZM281.4,462.7c-1.2,2.3-2.5,4.8-3.8,7.2-14.3,26.9-32.9,59.2-34.9,61.6h0c-8.5,10.3-17.8,18.6-27.7,25.1-31.9,20.7-70.5,22.6-111.7,12.5-32.6-8-66.8-23.5-100.5-43.2,38.4,23.9,77.5,42.9,114.5,51.9,39.6,9.7,76.6,8,107.3-11.3h0c10.3-6.5,19.8-14.9,28.5-25.5.2-.2,20.4-38.1,33.4-66.9.5-1,.9-2.1,1.4-3.1-2.4-3-4.5-5.7-6.4-8.3ZM273.8,429.2s0,0,0,0h0s0,0,0,0ZM276.1,428.6c2.3-.3,4.9,0,7.5.8.2,0,.4.1.6.2.5-.9,1-1.7,1.5-2.5-1.8-2.2-3.3-4.1-4.6-5.8-.4-.2-.8-.3-1.2-.4-1.3,1.7-2.8,3.7-4.4,6,.2.5.4,1.1.7,1.7ZM286.3,430.4c1.3.6,2.7,1.3,3.9,2.1-1.1-1.2-2.1-2.4-3-3.5-.3.5-.6,1-.9,1.5ZM298.5,441.5c.3.6.5,1.2.6,1.9.5,2.2-.7,6.9-2.9,13.1,6.7,7.6,15.2,16.5,26,27,4,2.8,9.2,4.8,15.2,5.7,8.9,1.4,19.4.7,29.8-2.8,10.4-3.5,20.6-9.6,28.9-18.8,2.7-3,5.2-6.3,7.4-9.9-6.1,6.5-13.5,11-21.3,13.8-10.3,3.8-21.4,4.7-31.9,3.6-9.5-1-18.4-3.7-25.4-7.5l-.3-.2c-10.7-10.2-19.3-18.8-26-25.9ZM407.2,449.5c.2-.6.4-1.3.6-1.9-3.7,3.3-7.8,5.8-12.2,7.6-8.7,3.7-18.7,4.8-28.7,4.3-13.3-.7-26.8-4.5-38-9.3l-.3-.2c-20.7-19.2-33.2-31.7-40.6-39.5,0,1.1-.4,2.1-1.1,2.9,3.1,3.3,5.2,7.6,3,11,3,2.8,5.1,6.3,4.6,9.6h0c7.3,8.1,17.6,18.6,31.6,32,6.8,3.6,15.3,6.2,24.4,7.2,10,1.1,20.8.2,30.7-3.5,9.9-3.6,19-10,25.7-19.8.1-.1.2-.3.3-.4ZM409.1,443.2c.6-1.9,1.3-3.8,2.1-5.7-4.5,2.9-9.8,4.7-15.4,5.7-18.9,3.2-42.6-3.4-62.8-10.5l-.4-.2c-9.7-8.7-17.6-15.8-24-21.7-13.1-11.8-20.1-18.2-23.6-21-.1.3-.2.6-.4.9,1.3,3.5,2.8,8.3.5,11.6.7.9,1.3,2,1.7,3,.2.4.3.8.5,1.2,6.8,7.5,19.7,20.5,42.7,41.9,10.9,4.7,24,8.3,36.9,9,9.7.5,19.2-.6,27.5-4.1,5.4-2.3,10.4-5.6,14.5-10.2ZM423.5,417c.1-.1.2-.3.3-.4.5-1.4.9-2.9,1.3-4.4-.4.5-.7,1.1-1.1,1.6-.1,1.1-.3,2.2-.5,3.2ZM294.5,454.5c1.8-5.1,2.7-8.9,2.3-10.7-.4-2.1-1.7-4.2-3.4-6-1,2.6-2.5,6-4.5,10.1,1.7,2.1,3.5,4.3,5.6,6.6ZM291.6,436.1c-1.9-1.5-4.1-2.9-6.3-3.8-1.1,1.8-2.3,3.8-3.6,6.1,1.6,2.3,3.4,4.8,5.6,7.6,2-4.2,3.5-7.6,4.3-9.8ZM283.1,431.5c0,0-.2,0-.2,0-2.1-.6-4.1-.9-5.9-.8.8,1.7,1.9,3.5,3.3,5.6,1-1.7,2-3.3,2.8-4.8ZM274.8,431.1c-.2,0-.4.1-.5.2-2.1,1.1-3.2,3.4-2.5,7.5.3,2.1,1.1,4.6,2.5,7.6,1.7-2.9,3.4-5.6,4.8-8.1-1.8-2.8-3.2-5.2-4.3-7.3ZM275.4,448.9c1.4,2.8,3.3,5.9,5.7,9.5,1.9-3.7,3.7-7.1,5.2-10.2-2.3-2.8-4.2-5.4-5.8-7.7-1.6,2.6-3.3,5.5-5.1,8.5ZM282.7,419.6c.7.3,1.4.6,2.1,1,1.1.6,2.3,1.3,3.4,2.2,1.1-2.4-.6-5.5-2.9-8-.1,0-.3.1-.4.2-.7.5-1.7,1.7-3.1,3.4.3.4.6.8.9,1.2ZM412.9,433.5c0-.3.1-.5.2-.8h0c.6-2.4,1.4-4.6,2.2-6.8-4.3,1.8-9.3,2.7-14.6,2.9-16.3.6-36.6-5.5-56.2-11.4-2.6-.8-5.1-1.5-7.4-2.2l-.5-.2c-38.2-33.5-48.3-40.6-50.4-38.7-.6.6-.6,2.5-.5,4.9,0,2,.2,4.3-.2,6.3,3.4,2.6,10.5,9.1,24.6,21.9,6.4,5.8,14.2,12.9,23.8,21.5,19.8,7,43,13.4,61.3,10.3,6.6-1.1,12.6-3.5,17.5-7.7ZM416.6,422.8c.3-.7.7-1.5,1.1-2.2,0-.2,0-.5,0-.7h0c.6-2.4,1.3-4.6,2.2-6.7-1.7.4-3.5.6-5.3.8-13.4,1-31.1-4.1-50-9.7-7.7-2.2-15.5-4.5-23.4-6.5l-.5-.2c-36.8-31.2-47.6-36.4-51.3-33-1.4,1.3-1.9,4-2.4,6.9-.2.9-.4,1.9-.6,2.8,4.9.1,17.6,9.4,51.7,39.1,2.5.8,4.8,1.4,7.1,2.1,19.5,5.8,39.5,11.9,55.4,11.3,6-.2,11.4-1.4,16-3.9ZM424.6,409c.5-.7,1-1.4,1.5-2.1.1-.7.2-1.4.3-2.1-.6,1.1-1.2,2.2-1.8,3.3,0,.3,0,.6,0,.9ZM428.9,403.4c.5-.7,1.1-1.3,1.6-1.9.2-.9.4-1.9.5-2.9-.3,0-.6.2-.9.3-.3.5-.6,1-1,1.4,0,1.1-.2,2.1-.3,3.1ZM433.5,398.2c.4-.4.7-.8,1.1-1.1-.3.2-.7.3-1,.5,0,.2,0,.4,0,.6ZM420.6,419.8c0,.2-.2.4-.3.6,0,0,.1-.1.2-.2,0-.1,0-.3,0-.4ZM292,431.1c-.5-1.7-1.7-3.4-3.2-4.9-.1.2-.3.5-.4.7,1.1,1.3,2.3,2.7,3.6,4.2ZM287.1,424.7c-.4-.3-.9-.7-1.3-1,.4.4.7.9,1.1,1.4l.2-.4ZM277.4,420.6c-.4,0-.7,0-1,.2-1.1.4-1.7,1.4-1.5,3.3.9-1.2,1.7-2.4,2.5-3.4ZM420.9,410.7c.5-1,.9-2.1,1.4-3.1,0-.2,0-.3,0-.5v-.2c.7-2.5,1.5-5,2.5-7.4-11.1.6-26.1-4-43.3-9.3-11.3-3.5-23.6-7.3-36.3-10.1l-.5-.3c-35.5-29.1-47-32.3-52-27.5-1.9,1.9-3.1,5.1-4.3,8.4-.3.7-.5,1.5-.8,2.2,0,0,0,0,0,0,4.6-4.3,16.3.6,54.3,32.8,7.8,2,15.6,4.3,23.2,6.5,18.7,5.5,36.2,10.6,49.1,9.6,2.3-.2,4.5-.6,6.5-1.2ZM429.4,396c.7-1,1.5-2,2.3-3,0-.8,0-1.5.1-2.3-.9,1.5-1.7,2.9-2.4,4.4,0,.3,0,.6,0,1ZM434.2,390c.8-1,1.7-1.9,2.5-2.9,0-.6.1-1.2.2-1.8-.5,0-1.1.1-1.7.2-.3.5-.6.9-1,1.4,0,1.1,0,2.1,0,3.1ZM440.6,386.2c-.6.6-1.1,1.1-1.6,1.7,0,.8-.2,1.6-.3,2.3.8-1.2,1.4-2.5,1.9-4ZM436.1,391c-.7.9-1.5,1.8-2.2,2.6,0,.4,0,.9-.1,1.3.6-.4,1.2-.8,1.7-1.2.2-.9.4-1.8.6-2.7ZM283.7,413.3c-2-1.8-4.2-3-5.4-3.1-.6,0-.6,1,.8,3.7.4.8.9,1.6,1.5,2.6,1.2-1.5,2.2-2.6,2.9-3.1h.1c0,0,.1-.1.2-.2ZM277.4,395.5c.8.1,2.3,1.1,4.2,2.6.6.5,1.3,1.2,2,2.1.8-2.1.3-4.9-.5-7.3-1.3,1.2-3.1,2.1-5.7,2.6ZM434.1,383.1c.9-1.3,1.9-2.5,2.9-3.7,0-.8,0-1.6,0-2.4-1,1.7-2,3.4-2.9,5.1,0,.3,0,.6,0,1ZM439.3,376.6c1-1.2,2.1-2.3,3.2-3.5,0-.5,0-1,0-1.6-.6,0-1.2,0-1.8-.1-.5.7-1.1,1.5-1.6,2.2,0,1,.1,2,.2,3ZM446.3,369.3c.6-.6,1.2-1.1,1.9-1.7,0-1.6.1-3.3,0-5.1-1.3,1.3-2.5,2.7-3.6,4,0,1,.1,2,.2,3,.5,0,1,0,1.5-.2ZM450.5,365.5c.9-.8,1.8-1.5,2.7-2.3.5-1.5.8-3.2,1-5.3-.4,0-.9,0-1.4,0-.8.8-1.6,1.5-2.4,2.3.1,1.9.1,3.6,0,5.2ZM447.5,371.2c-.9.9-1.8,1.8-2.7,2.7,0,1.9-.2,3.6-.3,5.3,1.6-1.9,2.7-4.5,3.3-8,0,0-.1,0-.2,0ZM442.4,376.5c-1.1,1.1-2,2.3-3,3.5,0,.9,0,1.8,0,2.7.9-.3,1.7-.7,2.5-1.1.3-1.5.5-3.2.6-5ZM437,383c0,0-.1.1-.2.2h.1s0,0,0,0v-.2ZM439.6,369.2c.9-1.1,1.7-2.2,2.6-3.3,0-.8-.1-1.6-.2-2.4-1.2,1.8-2.2,3.7-3.2,5.6.3,0,.5,0,.8.1ZM444.4,363.4c1.2-1.3,2.4-2.7,3.7-4,0-.7-.1-1.5-.2-2.2-.4,0-.8-.2-1.2-.3-.9,1.2-1.8,2.3-2.6,3.5.1,1,.2,2,.3,3ZM451.9,355.8c.8-.7,1.6-1.4,2.4-2.2,0-1.5-.2-3.1-.4-4.9-1.4,1.5-2.8,2.9-4.1,4.4,0,.8.2,1.6.3,2.4.6.1,1.3.2,1.8.2ZM456.4,351.8c1.3-1.1,2.6-2.2,4-3.3.1-1.2.2-2.7.1-4.3-.5,0-1.1-.2-1.6-.3-1,.9-2,1.8-2.9,2.7.2,1.8.4,3.5.5,5.1ZM459.6,351.9c-1,.9-2.1,1.7-3.1,2.6v.7c1.4-.6,2.4-1.7,3.1-3.3ZM442.4,369.2c0,.1-.2.2-.3.3,0,0,.2,0,.3,0,0-.1,0-.2,0-.3ZM428,409.8h0s0,0,0,0h0ZM283,388.2c-.1,0-.2-.1-.3-.2-.6-.3-.3,0,.3.4,0,0,0-.1,0-.2ZM471.8,330.9c-.9.1-1.8,0-3-.2.1.7.2,1.5.2,2.2.9-.7,1.8-1.3,2.7-2ZM443.7,357.2c.2-.3.5-.6.7-1-.3,0-.5-.1-.8-.2,0,0,0,.1,0,.2,0,.3.1.7.2,1ZM445.8,354.5c.5-.7,1.1-1.3,1.6-1.9-.1-.8-.2-1.6-.4-2.4-.9,1.3-1.7,2.7-2.4,4,.4.1.8.2,1.2.4ZM449.4,350.3c1.3-1.5,2.7-2.9,4.2-4.3-.2-1.2-.4-2.5-.6-3.8-1.4,1.7-2.8,3.5-4,5.2.2,1,.3,2,.5,2.9ZM455.6,344c.3-.2.5-.5.8-.7-.3,0-.6-.2-1-.3,0,.4.1.7.2,1ZM458.1,341.7c.7-.6,1.3-1.2,2-1.7-.2-1.5-.4-3-.7-4.7-1.6,1.6-3.1,3.2-4.5,4.8,0,.2,0,.5.1.7,1.1.4,2.1.7,3.1,1ZM462.2,338.2c1.6-1.3,3.2-2.6,4.8-3.8,0-1.3-.2-2.7-.5-4.3-.4-.1-.8-.3-1.2-.4-1.4,1.2-2.7,2.4-4,3.6.3,1.8.6,3.4.8,4.9ZM466.9,337.1c-1.5,1.2-3,2.4-4.5,3.6,0,.5,0,1,.1,1.5.4,0,.8,0,1.1-.2,1.9-.5,3-2,3.3-5ZM477.6,317.4c-.9-.2-1.9-.6-3-1.1.2,1,.4,1.9.6,2.8.8-.6,1.6-1.2,2.5-1.7ZM446.4,347.1c0,0,.1-.1.1-.2h0c0,0-.1.1-.1.2ZM448.4,344.3c.8-1,1.6-2.1,2.4-3.1-.4-.2-.8-.3-1.3-.5-.5.8-1,1.7-1.4,2.5,0,.4.1.7.2,1.1ZM452.3,339.6c0,0,.1-.1.2-.2-.2-.8-.3-1.6-.5-2.5-.5.7-.9,1.4-1.3,2,.6.2,1.1.5,1.6.7ZM454.4,337.2c1.4-1.6,2.9-3.1,4.5-4.6-.3-1.2-.5-2.5-.8-3.8-1.5,1.8-3,3.6-4.3,5.5.2,1,.4,2,.6,2.9ZM460.8,330.8c.7-.7,1.5-1.4,2.2-2-.9-.4-1.9-.9-3-1.4.3,1.2.5,2.3.8,3.4ZM464.8,327.2c.3-.3.7-.6,1-.9-.3-1.4-.7-3-1.1-4.6-1.3,1.2-2.5,2.5-3.7,3.8,1.4.7,2.6,1.2,3.7,1.7ZM467.8,324.8c1.8-1.4,3.6-2.8,5.5-4.2-.3-1.5-.7-3.3-1.2-5.3-1.9,1.5-3.7,3.1-5.4,4.7.4,1.7.8,3.3,1.1,4.8ZM473.6,323c-1.8,1.4-3.6,2.8-5.3,4.2,0,.5.2.9.2,1.4,1.3.4,2.4.4,3.2.2,1.6-.4,2.2-2.2,1.9-5.8ZM484.1,303.5c-1.2-.6-2.7-1.4-4.4-2.5.5,1.7,1,3.2,1.4,4.6,1-.7,2-1.4,3-2.1ZM450.9,334.4c.1-.2.3-.4.4-.6v-.2c-.2.3-.3.5-.4.8ZM453.1,331.4c1.4-1.8,2.8-3.5,4.3-5.2v-.2c-.6-.3-1.1-.5-1.6-.8-1.1,1.7-2.1,3.4-3,5.1,0,.4.2.7.3,1.1ZM459.3,324.2c1.5-1.6,3.1-3.3,4.8-4.8-.3-1.2-.7-2.4-1-3.7-1.6,1.9-3.2,3.8-4.6,5.7.3,1,.5,1.9.7,2.9ZM466.1,317.6c1.3-1.2,2.6-2.3,4-3.5-1.1-.6-2.3-1.3-3.6-2.1-.5.5-1,1-1.5,1.6.4,1.4.8,2.7,1.1,4ZM473.3,311.4c1.9-1.5,3.9-3,6-4.5-.4-1.5-1-3.2-1.6-5.1-2,1.6-3.9,3.3-5.7,4.9.5,1.7,1,3.2,1.4,4.7ZM486,302.2c.5-.3.9-.6,1.4-.9,0-1.1-.6-2.9-1.6-5.8-1.7,1.2-3.4,2.5-5,3.7,2.3,1.5,4.1,2.6,5.2,3ZM479.8,309.2c-2,1.5-4,3-5.9,4.6h0c2.7,1.5,4.5,2.1,5.5,1.8,1.2-.4,1.4-2.3.4-6.4ZM490.9,289.5c-1.3-.9-2.8-2.1-4.6-3.5-.4.3-.9.7-1.3,1,.7,1.9,1.4,3.6,1.9,5.2,1.3-.9,2.6-1.8,4-2.7ZM455.5,321.8c.2-.3.4-.6.6-.9v-.3c-.3.4-.5.8-.6,1.2ZM457.9,318.5c1.4-1.8,3-3.7,4.6-5.4-.2-.8-.5-1.7-.7-2.5-1.5,2.2-2.9,4.5-4.1,6.8.1.4.2.8.3,1.1ZM464.3,311.1c0,0,.2-.2.3-.3l-.4-.2.2.5ZM466,309.3c1.1-1.1,2.2-2.2,3.3-3.2-.4-1.2-.8-2.4-1.2-3.7-1.6,1.8-3.1,3.6-4.5,5.5.8.5,1.6,1,2.4,1.4ZM471.2,304.4c1.8-1.6,3.7-3.2,5.7-4.8,0-.2-.1-.3-.2-.5-.9-.6-1.9-1.3-2.9-2l-.3-.2c-1.2,1.2-2.4,2.4-3.6,3.6.4,1.4.9,2.7,1.3,3.9ZM478.9,298c2-1.5,4-3.1,6.1-4.6-.5-1.5-1.2-3.1-1.9-5-2.1,1.7-4.1,3.4-6,5.1.5,1.5,1,2.9,1.5,4.2l.3.2ZM492.8,288.2c.4-.3.8-.5,1.3-.8-.5-1.2-1.3-2.9-2.4-5.4-1.2.9-2.4,1.7-3.6,2.6,2,1.5,3.6,2.8,4.7,3.6ZM470.1,308.4c-.7.7-1.4,1.4-2.1,2.1,1.2.7,2.3,1.3,3.3,1.9-.4-1.2-.8-2.6-1.2-4ZM497.9,275.3c-.4-.4-.8-.7-1.3-1.1-.9-.8-1.9-1.8-3.1-2.8-1.1.8-2.1,1.6-3.2,2.4.8,1.9,1.6,3.5,2.2,5.1,1.7-1.2,3.5-2.3,5.3-3.5ZM484.5,284.6l-.7-.6c.1.3.2.6.3.8.1,0,.3-.2.4-.3ZM460.1,309.1c.1-.2.3-.4.4-.6h-.1c-.1.1-.2.4-.3.6ZM462.6,305.7c1.5-1.9,3.1-3.8,4.8-5.6-.3-.8-.6-1.7-.9-2.5-1.6,2.3-3.1,4.6-4.3,7,.1.4.3.8.4,1.2ZM469.2,298.1c.8-.8,1.6-1.7,2.5-2.5-.8-.5-1.6-1.1-2.5-1.7-.4.4-.7.9-1,1.3.4,1,.7,1.9,1,2.9ZM473.3,294.1c.4-.4.8-.8,1.3-1.2-.4-1.2-.9-2.4-1.4-3.6-.9,1-1.8,2-2.6,3,.9.6,1.8,1.2,2.7,1.8ZM476.3,291.3c1.9-1.7,3.9-3.3,5.9-5-.5-1.4-1.1-2.8-1.8-4.4-2,1.8-3.9,3.6-5.6,5.5.5,1.4,1,2.6,1.4,3.9ZM486.3,283.3c1.5-1.1,2.9-2.2,4.5-3.2-.7-1.4-1.4-3.1-2.2-4.9-2.1,1.7-4.2,3.4-6.1,5.1,1.4,1.1,2.7,2.1,3.9,3ZM499.8,274c.3-.2.6-.3.9-.5-1-1.2-2.2-2.8-3.3-4.9-.7.5-1.3.9-2,1.4,1.1,1,2.1,1.9,2.9,2.7.6.5,1.1,1,1.5,1.4ZM502,275.2c-.2.1-.4.2-.5.3.5.4.8.7.9.7.5,0,.3-.3-.4-1ZM475.3,295.1c0,0-.2.1-.2.2h.1c0,0,.3.3.3.3l-.2-.5ZM517.1,253.9c-1-1.1-2.1-2.5-3.5-4.3-.2-.3-.4-.5-.6-.8-2.8,1.7-5.6,3.5-8.2,5.3,1.2,2.1,2.3,3.9,3.1,5.3,3-1.8,6.1-3.6,9.3-5.3ZM505.1,261c-1.1-1.2-2.5-2.7-4.1-4.4-1.8,1.3-3.6,2.6-5.3,3.9.9,1.8,1.8,3.5,2.5,5,2.2-1.5,4.5-3,6.9-4.5ZM491.9,269.8c-1.2-1-2.4-2.1-3.8-3.3-.2.2-.5.4-.7.6.7,1.6,1.4,3.1,2,4.5.8-.6,1.6-1.2,2.5-1.8ZM464.6,296.4c.3-.5.7-1,1-1.4l-.2-.5c-.3.7-.6,1.3-.9,2ZM467.3,292.8h0s0,0,0,0h0ZM468.7,291.1c1.1-1.4,2.3-2.7,3.6-4.1-.3-.8-.6-1.6-1-2.5-1.4,1.9-2.6,3.9-3.8,5.8.4.3.8.5,1.1.7ZM474.1,285.2c1.6-1.6,3.2-3.2,4.9-4.8-.9-.7-1.8-1.4-2.8-2.1-1.2,1.3-2.2,2.7-3.3,4,.4,1,.7,1.9,1.1,2.9ZM481.4,278.2c2-1.7,4-3.4,6.2-5.1-.6-1.3-1.3-2.8-2-4.3-2,1.8-4,3.7-5.8,5.6.6,1.3,1.1,2.6,1.6,3.9ZM493.7,268.5c.9-.6,1.7-1.2,2.6-1.8-.7-1.5-1.6-3.1-2.5-4.8-1.4,1.1-2.7,2.2-4,3.3,1.4,1.2,2.7,2.3,3.9,3.4ZM523.7,240.2c-.9-.6-2-1.7-3.5-3.2-.4-.5-.9-1-1.5-1.7-2.9,1.7-5.7,3.5-8.4,5.3,1.6,1.8,2.9,3.4,4,4.8,3-1.8,6.1-3.6,9.3-5.3ZM511.8,247c-1-1.4-2.1-3-3.4-5.1-2.6,1.8-5,3.5-7.4,5.3,1,1.8,1.9,3.4,2.7,4.9,2.6-1.7,5.3-3.4,8.1-5.1ZM499.4,255c-1.2-1.1-2.4-2.4-3.8-3.6-1.1.9-2.1,1.8-3.2,2.6.8,1.6,1.5,3.1,2.2,4.4,1.5-1.2,3.1-2.3,4.7-3.5ZM469.2,283.7c.4-.6.8-1.1,1.2-1.7l-.2-.6c-.4.8-.7,1.5-1,2.3ZM472,279.9c.8-1,1.6-1.9,2.4-2.9-.5-.3-.9-.7-1.4-1-.5.9-1,1.7-1.5,2.6.2.4.3.8.5,1.2ZM475.9,275.4c.4-.5.9-1,1.3-1.4-.3-.8-.7-1.7-1.1-2.5-.7.9-1.3,1.8-1.9,2.8.6.4,1.1.8,1.7,1.2ZM478.9,272.2c1.8-1.8,3.7-3.7,5.8-5.5l-.2-.3c-.5-1-1-2.1-1.5-3.3-1.9,2.1-3.7,4.1-5.3,6.2.4,1,.8,1.9,1.2,2.9ZM488.1,263.7c1.5-1.3,3.1-2.6,4.7-3.8-.7-1.4-1.4-2.8-2.1-4.3-2,1.8-4,3.6-5.8,5.5,1.1.9,2.2,1.8,3.2,2.6ZM501.3,253.8c.2-.1.4-.2.5-.4-.8-1.4-1.7-3-2.7-4.8-.6.5-1.2.9-1.8,1.4,1.4,1.3,2.7,2.6,3.9,3.7ZM502.9,255.3h0s.2.3.2.3l-.2-.3ZM478.1,276.2c-.2.2-.3.3-.5.5.3.2.7.5,1,.7l-.5-1.2ZM529.8,226.6c-.8-.5-1.8-1.2-2.9-2.3-.7-.6-1.5-1.5-2.4-2.5-2.2,1.3-4.4,2.7-6.5,4,1.5,1.9,2.8,3.6,3.9,5.1,2.6-1.5,5.3-3,8-4.4ZM517.4,233.6c-1.1-1.4-2.3-3-3.7-5-2.6,1.8-5.2,3.6-7.6,5.4,1.1,1.8,2,3.4,3,4.8,2.7-1.8,5.5-3.6,8.3-5.3ZM507,240.3c-.3-.3-.6-.6-.8-.9-.9-1-1.9-2-3-3.1-2,1.5-3.9,3.1-5.7,4.7.8,1.6,1.6,3,2.4,4.4,2.3-1.7,4.7-3.4,7.1-5.1ZM494,249.9c-1-.9-2.1-1.9-3.2-2.8-.4.4-.8.8-1.2,1.2.6,1.3,1.3,2.6,1.9,3.8.8-.7,1.7-1.4,2.5-2.1ZM473.7,271c.5-.6.9-1.3,1.4-1.9l-.3-.7c-.4.9-.8,1.7-1.1,2.6ZM476.8,267c1.5-1.9,3.2-3.8,4.9-5.7-.6-.5-1.2-1-1.9-1.4-1.4,1.9-2.6,3.9-3.6,5.8l.5,1.3ZM483.8,259.2c1.9-1.9,3.8-3.7,5.9-5.6-.6-1.1-1.2-2.3-1.8-3.6-2,2.1-3.8,4.2-5.4,6.3.4.9.9,1.9,1.3,2.9ZM495.7,248.6c.8-.6,1.5-1.2,2.3-1.8-.7-1.3-1.5-2.8-2.3-4.3-1.2,1-2.3,2.1-3.4,3.1,1.2,1,2.3,2,3.4,3ZM519.3,232.5c.2,0,.3-.2.5-.3-1-1.5-2.3-3.2-3.8-5.1-.1,0-.3.2-.4.3,1.4,2,2.6,3.7,3.7,5.1ZM521,234l-.3.2c.4.5.8,1,1.2,1.4-.3-.5-.6-1-.9-1.5ZM535.5,213.2c-.6-.4-1.4-.9-2.1-1.5-1-.8-2.2-1.8-3.5-3.2-1.5.9-2.9,1.8-4.3,2.6,1.5,2,2.7,3.8,3.7,5.4,2.1-1.1,4.1-2.3,6.3-3.4ZM523,220.3c-1.2-1.4-2.5-3-3.9-4.9-2.2,1.5-4.4,3-6.4,4.5.9,1,1.8,1.9,2.6,2.9.4.5.9,1,1.3,1.5,2.1-1.4,4.2-2.7,6.4-4ZM512.6,226.9c-1-1.4-2-3-3.1-4.7-2.4,1.9-4.8,3.7-7,5.6.9,1.5,1.7,3,2.5,4.4,2.4-1.8,4.9-3.6,7.5-5.3ZM501.7,234.8c-1.1-1-2.2-2.1-3.4-3.2-1.3,1.2-2.6,2.4-3.8,3.7.7,1.3,1.3,2.6,2,3.8,1.7-1.4,3.4-2.8,5.2-4.3ZM489.1,245.7c-.4-.3-.8-.7-1.3-1,.3.5.5,1,.8,1.6.2-.2.4-.3.5-.5ZM479.3,256.8c.2-.2.4-.5.5-.7l-.3-.7c-.2.4-.4.8-.6,1.2l.3.2ZM481.5,254.1c1.7-2.1,3.5-4.1,5.4-6.1-.4-.8-.8-1.7-1.2-2.6-1.8,2.5-3.4,5-4.8,7.4h0c.2.4.4.9.6,1.3ZM490.7,244.2c1.3-1.2,2.6-2.4,4-3.7-.6-1.1-1.2-2.3-1.9-3.6-1.6,1.7-3.2,3.4-4.6,5.2.9.7,1.7,1.4,2.5,2ZM514.4,225.6c0,0,.2-.1.3-.2-.4-.5-.8-1-1.3-1.5-.1-.2-.3-.3-.4-.5.5.7,1,1.5,1.4,2.1ZM524.9,219.1c.8-.5,1.6-.9,2.4-1.4-1-1.6-2.2-3.4-3.6-5.4-.9.6-1.8,1.2-2.7,1.8,1.5,2,2.8,3.6,4,5ZM528.4,219.6c-.7.4-1.4.8-2,1.2.8.9,1.5,1.6,2.1,2.2,1.3,1.2,1.8,1.2,1.5.3-.3-1-.9-2.2-1.6-3.6ZM746.9,106.4c-11.9,34.2-29.2,59.7-78.6,54.6h0c-36.9-3.3-78.6,7.3-113.3,23.8-.3,3.2-2.4,4.5-6.1,3-1.2.6-2.4,1.2-3.6,1.8,1.1,2.3,1.7,4.4,2,6,0,.4.1.7.2,1,37.1-18.1,82.2-30,121-27.3h0c51.4,4.3,66-25.4,78.3-62.9ZM541.1,199.9c-.4-.2-.7-.5-1.1-.7-1.3-.9-2.9-2.2-4.7-4-.7.4-1.4.8-2.1,1.2,1.4,2.1,2.6,4,3.6,5.7,1.4-.8,2.8-1.5,4.3-2.3ZM528.4,207c-1.3-1.4-2.6-3-4.1-4.9-1.3.9-2.6,1.8-3.9,2.7.8.9,1.5,1.7,2.2,2.5.6.7,1.2,1.4,1.7,2.1,1.4-.8,2.7-1.7,4.2-2.5ZM517.8,213.7c-1-1.4-2.1-2.9-3.2-4.6-2.4,1.9-4.8,3.7-7,5.6,1.3,1.2,2.5,2.4,3.6,3.6,2.2-1.6,4.4-3.1,6.7-4.6ZM508.3,220.4c-.8-1.3-1.7-2.7-2.6-4.2-2.3,2-4.4,4-6.4,6,.7,1.3,1.4,2.5,2.1,3.7,2.2-1.9,4.5-3.7,6.9-5.5ZM496.7,230.2c-.9-.8-1.7-1.5-2.6-2.3-.7.8-1.4,1.7-2.1,2.5.5,1,1,1.9,1.5,2.8,1-1,2.1-2.1,3.2-3.1ZM482.9,245.5c.6-.8,1.1-1.6,1.7-2.3l-.4-.8c-.5,1-1,2.1-1.4,3.1ZM486.5,240.8c1.6-1.9,3.4-3.9,5.3-5.9-.4-.8-.9-1.7-1.3-2.6-1.9,2.5-3.5,5-4.8,7.4h0c0,.1.1.4.1.4.3.2.5.4.8.6ZM498.3,228.7c.5-.4.9-.8,1.4-1.2-.6-1.1-1.3-2.3-2-3.5-.8.8-1.5,1.5-2.2,2.3,1,.8,1.9,1.6,2.8,2.4ZM519.7,212.4c.9-.6,1.8-1.2,2.7-1.8-.5-.7-1.1-1.4-1.7-2.1-.7-.8-1.4-1.6-2.1-2.5-.8.5-1.5,1.1-2.2,1.6,1.2,1.7,2.3,3.3,3.3,4.7ZM530.4,205.8c1.5-.9,3-1.7,4.5-2.6-.9-1.7-2.1-3.6-3.5-5.6-1.7,1.1-3.5,2.2-5.1,3.3,1.5,1.9,2.9,3.6,4.2,5ZM543.7,198.6c.4-.2.9-.4,1.3-.7.2-.4.2-1.1,0-2-.3-1.4-.8-3.2-1.7-5.3-2.1,1.1-4.1,2.2-6.1,3.4,1.6,1.5,2.9,2.6,4.1,3.4.9.6,1.7,1,2.3,1.1ZM535.8,205.2c-1.3.7-2.6,1.5-4,2.2,1.2,1.2,2.2,2.1,3.1,2.8,2.1,1.7,3,1.2,2.6-.6-.3-1.2-.9-2.7-1.7-4.4ZM500.7,229.4c-.3.3-.6.5-.8.7,1,.9,1.9,1.8,2.8,2.6-.6-1.1-1.3-2.2-2-3.4ZM746.5,100.3c-11.8,32.7-30.1,56.3-78.2,50.3-1-.1-1.9-.2-2.7-.3-34.3-3.2-71.4,5.9-103,20.3-.3,4.6-3.1,6.3-8.4,4-.4.2-.8.4-1.3.6,1.1,2.7,1.8,5,2,6.9,0,.1,0,.3,0,.4,34.9-16.4,76.5-26.9,113.6-23.5h0c50.2,5.2,66.1-22.6,77.9-58.7ZM546.6,186.6h0c-1.4-.8-3-2-4.8-3.6,1,1.7,1.9,3.3,2.7,4.8.7-.4,1.4-.7,2.1-1.1ZM533.8,193.7c-1.3-1.4-2.8-3-4.3-4.8-.5.3-.9.6-1.3.9.6.7,1.2,1.4,1.7,2.1.8,1,1.5,1.9,2.2,2.9.6-.4,1.2-.7,1.8-1.1ZM523,200.4c-1.1-1.4-2.2-2.9-3.4-4.6-1.5,1.1-2.9,2.3-4.4,3.4,1.3,1.3,2.5,2.6,3.7,3.9,1.3-.9,2.7-1.9,4-2.8ZM513.3,207.3c-.9-1.3-1.8-2.7-2.7-4.1-2.3,2-4.5,4-6.5,6.1.8,1.3,1.5,2.5,2.2,3.7,2.2-1.9,4.6-3.8,7-5.6ZM504.3,214.6c-.9-.9-1.9-1.7-2.9-2.6-1.7,1.8-3.3,3.6-4.7,5.4.5,1,1,1.9,1.6,2.8,1.9-1.9,3.9-3.8,6.1-5.6ZM492.4,226.5c-.4-.4-.9-.7-1.3-1.1-.3.4-.5.9-.8,1.4,0,0,0,.2,0,.2.2.4.4.8.6,1.2.5-.6,1-1.2,1.5-1.8ZM487.4,232.8c.6-.8,1.2-1.7,1.9-2.5-.1-.3-.3-.5-.4-.8-.6,1.1-1,2.3-1.5,3.4ZM493.8,224.9c.9-1,1.8-2,2.7-2.9-.5-.8-.9-1.7-1.4-2.6-1.1,1.4-2,2.8-2.9,4.2.5.4,1.1.9,1.6,1.3ZM515.1,205.9c.7-.5,1.3-1,2-1.4-1.1-1.2-2.3-2.5-3.6-3.8-.4.3-.8.7-1.2,1,1,1.5,1.9,2.9,2.8,4.3ZM524.8,199.2c1.7-1.1,3.5-2.2,5.2-3.3-.7-.9-1.4-1.9-2.2-2.9-.5-.7-1.1-1.3-1.6-2-1.7,1.2-3.3,2.3-4.9,3.5,1.2,1.7,2.4,3.3,3.5,4.7ZM535.7,192.5c2.2-1.3,4.4-2.5,6.7-3.7-.9-1.8-2-3.8-3.4-5.9-2.6,1.6-5.2,3.2-7.7,4.8,1.6,1.9,3,3.5,4.4,4.9ZM548.9,185.4c.6-.3,1.1-.6,1.7-.8.7-.4,1.4-.7,2.1-1,0-.4,0-.8,0-1.2-.2-1.7-.8-3.7-1.7-6.1-1.1.5-2.1,1.1-3.2,1.7-1.7.9-3.5,1.9-5.1,2.9,2,1.9,3.8,3.2,5.3,4.1.4.2.7.4,1,.5ZM746.7,92.7c-11.7,31.8-30.8,54.4-78.4,47.5-2.7-.4-5.3-.6-8-.8-30.6-2.3-62.4,5.1-90.1,17.1-.2,5.4-3.3,7.8-9.1,5.6.8,2.4,1.3,4.5,1.5,6.2,31.8-14.3,68.9-23.2,103.3-20,1,0,1.9.2,2.8.3h0c49.6,6.2,66.6-20.5,78-55.9ZM528.1,187.2c-1.1-1.4-2.3-2.9-3.5-4.5-.5.4-1.1.8-1.6,1.2,1.3,1.4,2.6,2.8,3.8,4.2.5-.3.9-.6,1.4-.9ZM518.3,194.1c-.9-1.3-1.9-2.7-2.8-4.1-1.8,1.5-3.5,3.1-5.1,4.7,1.1,1,2.2,2.1,3.3,3.1,1.5-1.2,3.1-2.4,4.7-3.6ZM509.5,201.3c-.7-1.1-1.4-2.3-2.2-3.5-2.2,2.2-4.1,4.5-5.9,6.7.5,1,1.1,1.9,1.6,2.8,2-2,4.2-4,6.5-6ZM499.8,210.6c-.6-.5-1.2-1-1.8-1.5-1.1,1.6-2.1,3.2-3,4.8,0,.1,0,.3,0,.4.2.4.4.8.6,1.2,1.3-1.6,2.7-3.2,4.2-4.8ZM492,220c.6-.9,1.3-1.8,2-2.7-.2-.3-.3-.6-.5-.9-.6,1.2-1.1,2.4-1.5,3.5ZM501.3,209h0c-.5-.9-1-1.8-1.5-2.6-.2.3-.5.6-.7.9.7.6,1.4,1.2,2.1,1.7ZM511.2,199.8c.3-.2.5-.4.8-.7-1-1-2-1.9-3-2.9.8,1.2,1.5,2.4,2.2,3.5ZM520.1,192.8c1.6-1.1,3.1-2.3,4.8-3.4-1.2-1.3-2.4-2.7-3.7-4.1-1.4,1.1-2.7,2.2-4,3.3,1,1.5,2,2.9,2.9,4.2ZM529.9,186c2.5-1.7,5.2-3.3,7.9-4.9-.8-1.2-1.7-2.4-2.6-3.7-.4-.5-.8-1-1.2-1.5-2.7,1.8-5.2,3.6-7.7,5.4,1.3,1.7,2.5,3.2,3.6,4.7ZM540.9,179.3c1.8-1,3.7-2.1,5.5-3.1,1.2-.6,2.4-1.3,3.6-1.9-.5-1.1-1.1-2.3-1.8-3.6-.8-.6-1.6-1.3-2.5-2.1-3.2,1.9-6.4,3.8-9.4,5.8,1.6,1.9,3.1,3.5,4.6,4.9ZM554.2,172.2c2-1,4-1.9,6-2.9,0-.2,0-.4,0-.7-.1-1.9-.7-4.2-1.7-6.8-3.4,1.7-6.6,3.4-9.8,5.2.5.8,1,1.7,1.5,2.5,1.5,1.2,2.8,2.1,4,2.7ZM559.8,171.9c-.9.4-1.9.9-2.8,1.3,1.4.2,2.3-.3,2.8-1.3ZM747,84.6c-11.7,31.2-31.5,53-78.8,45.2-4.5-.7-9-1.1-13.5-1.4-26.5-1.4-53.2,4.4-77,14-.2,5.6-3.1,8.6-8.4,7.6.4,1.5.6,3,.8,4.3,27.9-11.9,59.7-19.2,90.4-16.9,2.7.2,5.5.5,8.2.8h0c49.3,7.2,67.1-18.8,78.4-53.6ZM523.3,180.9c-.9-1.3-1.9-2.6-2.9-4.1-.8.7-1.6,1.4-2.3,2.1,1.2,1.1,2.3,2.3,3.4,3.4.6-.5,1.2-.9,1.8-1.4ZM514.3,188.2c-.7-1.1-1.5-2.3-2.3-3.5-2.1,2.1-3.9,4.2-5.6,6.3.8.7,1.6,1.4,2.4,2.1,1.7-1.7,3.6-3.3,5.5-5ZM506.1,195.9c-.5-.8-1-1.7-1.5-2.5-1.9,2.5-3.6,5-4.9,7.4,0,.2,0,.3,0,.5.2.4.4.8.7,1.1,1.8-2.2,3.8-4.3,5.9-6.5ZM497.5,205.9c.4-.5.8-1,1.2-1.6-.2-.3-.3-.6-.5-.9-.4.7-.7,1.5-1,2.2.1,0,.2.2.3.3ZM516,186.7c1.2-1,2.4-2,3.7-3-1-1.1-2.1-2.2-3.3-3.3-.9.9-1.9,1.8-2.8,2.7.8,1.2,1.6,2.5,2.4,3.6ZM525.1,179.6c2.4-1.8,5-3.6,7.7-5.4-1.2-1.4-2.4-2.9-3.8-4.4-2.4,1.8-4.7,3.7-6.9,5.5,1,1.5,2,2.9,3,4.2ZM535,172.7c2.9-1.9,6-3.8,9.2-5.6-1.5-1.4-3-3-4.6-4.8-2.9,1.9-5.6,3.8-8.3,5.8,1.3,1.7,2.5,3.2,3.8,4.6ZM547.6,165.2c3.1-1.7,6.3-3.4,9.6-5.1-1.9-1.2-4-2.7-6.3-4.8-.7.4-1.4.8-2,1.2-1.7,1-3.5,2.1-5.1,3.1.2.3.5.7.7,1,1.1,1.6,2.2,3.1,3.1,4.6ZM559.8,158.8c2.6-1.3,5.3-2.5,8-3.7,0,0,0-.1,0-.2,0-1.7-.4-3.6-1.1-5.8-.2,0-.3-.1-.5-.2-.5-.2-1.1-.5-1.7-.8-2.7,1.3-5.4,2.7-8.1,4.1,1.3,2.3,2.4,4.5,3.3,6.6ZM567.6,157.5c-1.9.8-3.8,1.7-5.7,2.6,3.2,1.1,5.1,0,5.7-2.6ZM747.5,76.1c-11.7,30.8-32.1,51.9-79.2,43.2-6.4-1.1-12.9-1.8-19.3-1.9-22.1-.7-43.8,3.7-63.6,11-.3,5.8-3,9.2-8,9,.2.9.3,1.8.4,2.7,23.9-9.5,50.6-15.3,77.2-13.8,4.6.3,9.2.7,13.8,1.4h0c49.2,8.1,67.7-17.2,78.8-51.6ZM519.1,175.1c-.8-1.1-1.5-2.2-2.3-3.4-1.1,1.1-2.1,2.2-3.1,3.3.9.8,1.9,1.7,2.7,2.5.9-.8,1.7-1.6,2.6-2.4ZM510.8,182.9c-.5-.8-1.1-1.7-1.6-2.5-1.9,2.5-3.6,5-5,7.4,0,.2,0,.5,0,.7.2.4.4.7.6,1.1,1.8-2.2,3.8-4.4,6-6.6ZM503.4,191.4c-.2-.2-.5-.4-.7-.6-.6,1.2-1.1,2.4-1.5,3.5.7-1,1.4-2,2.2-2.9ZM512.5,181.2c.8-.8,1.6-1.5,2.4-2.3-.8-.8-1.7-1.5-2.6-2.3-.5.6-1.1,1.2-1.5,1.9.6,1,1.2,1.9,1.7,2.8ZM520.8,173.6c2.1-1.8,4.4-3.6,6.7-5.4-1.1-1.2-2.3-2.4-3.5-3.6-2,1.8-3.9,3.6-5.7,5.4.8,1.2,1.6,2.4,2.4,3.6ZM529.9,166.4c2.6-1.9,5.3-3.9,8.2-5.7-1.2-1.4-2.5-2.9-3.8-4.5-2.6,2-5.1,4-7.5,6,1.1,1.5,2.1,2.9,3.1,4.2ZM540,159.5c.2-.1.4-.3.6-.4-1.2-1.5-2.5-3.1-3.8-4.7-.2.1-.4.3-.6.4,1.3,1.7,2.6,3.2,3.9,4.6ZM542.4,157.9c1.7-1.1,3.4-2.1,5.2-3.1.6-.3,1.1-.6,1.7-1-1.5-1.4-3.1-3-4.8-4.8-2.1,1.4-4.1,2.7-6,4.1,1.4,1.6,2.7,3.2,3.9,4.8ZM551.2,152.7c.7-.4,1.5-.8,2.2-1.2-1.1-1.8-2.3-3.6-3.6-5.5l-.2-.2h-.1c-1.1.7-2.1,1.4-3.2,2.1,1.7,1.8,3.3,3.5,4.9,4.9ZM555.4,150.4c2.3-1.2,4.6-2.4,7-3.6-1.9-1.2-4.1-2.8-6.4-4.8-1.5.8-2.9,1.7-4.4,2.5,0,.1.1.2.2.3,1.3,1.9,2.5,3.7,3.6,5.5ZM564.6,145.8c.3-.1.5-.3.8-.4-.8-2.1-1.9-4.4-3.1-6.8-1.5.8-2.9,1.5-4.3,2.3,2.5,2.1,4.7,3.7,6.7,4.8ZM567.5,144.4c2.6-1.2,5.2-2.3,7.9-3.4,0-1.2-.2-2.5-.5-4-.7-.1-1.3-.4-2.1-.6-1-.4-2-.8-3.2-1.4-1.8.9-3.6,1.7-5.4,2.6,1.3,2.4,2.4,4.7,3.2,6.9ZM575.3,143.3c-2.4,1-4.7,2-7,3.1.1.4.3.8.4,1.1,3.9,1.1,6.1-.6,6.7-4.2ZM554.5,153.3c-.5.3-1.1.6-1.6.9,1.3,1.1,2.5,2.1,3.6,2.9-.6-1.2-1.2-2.5-2-3.7ZM541.8,160.8c-.2,0-.3.2-.4.3.9,1,1.8,1.9,2.6,2.8-.5-.7-1-1.4-1.5-2.2-.2-.3-.4-.6-.7-.9ZM748.2,67c-11.8,30.7-32.8,51.5-80,41.9h0c-8.5-1.7-17-2.4-25.4-2.4-20.8,0-40.9,4.4-59,11.6.9,3,1.4,5.8,1.5,8.2,19.9-7.2,41.6-11.6,63.7-10.9,6.6.2,13.1.8,19.7,2h0c49.4,9.1,68.5-16,79.5-50.3ZM515.5,169.8c-.5-.8-1.1-1.6-1.6-2.5-1.3,1.6-2.4,3.3-3.4,4.9.5.4,1.1.9,1.6,1.3,1.1-1.2,2.3-2.5,3.5-3.7ZM508,178.4c-.2-.3-.4-.6-.6-.9-.7,1.4-1.3,2.7-1.7,4,.7-1,1.5-2,2.3-3ZM509.5,176.5c.4-.4.7-.9,1.1-1.3-.4-.4-.9-.7-1.3-1.1-.1.2-.3.4-.4.7,0,.3,0,.6,0,.8.2.3.4.7.6,1ZM517.1,168.2c1.7-1.7,3.5-3.3,5.3-5-.9-.9-1.9-1.8-2.8-2.7-1.5,1.7-2.9,3.3-4.3,5,.6.9,1.2,1.8,1.8,2.7ZM525.5,160.5c2.4-2,4.8-4,7.4-5.9-1-1.3-2-2.6-3.1-4-2.4,2.1-4.7,4.3-6.8,6.4.8,1.2,1.7,2.4,2.5,3.6ZM534.7,153.2c.2-.1.4-.3.5-.4-1.2-1.3-2.4-2.6-3.6-3.9h-.1c1.1,1.6,2.2,2.9,3.2,4.3ZM537.1,151.5c1.9-1.4,3.9-2.7,5.9-4.1-1.3-1.4-2.6-2.9-3.9-4.5-2,1.5-3.9,3-5.8,4.6,1.3,1.3,2.5,2.7,3.7,4ZM544.9,146.2c1.1-.7,2.2-1.4,3.3-2.1,0,0,.1,0,.2-.1-1.2-1.6-2.5-3.3-3.9-5-1.2.9-2.4,1.7-3.6,2.6,1.4,1.7,2.7,3.2,4,4.6ZM550.3,142.9c1.3-.8,2.6-1.5,4-2.3-1.6-1.4-3.2-3-4.9-4.8-1,.7-2,1.3-3,2,1.4,1.7,2.8,3.4,4,5.1ZM556.2,139.5c1.7-.9,3.3-1.8,5-2.7-1.1-1.9-2.4-4-3.8-6.1-2.1,1.2-4.2,2.5-6.3,3.8,1.8,1.8,3.5,3.5,5,4.9ZM563.3,135.8c1.4-.7,2.8-1.4,4.2-2.1-2-1.3-4.2-2.9-6.6-4.9-.5.3-1,.5-1.5.8,1.4,2.1,2.7,4.1,3.8,6.1ZM569.8,132.6c1.1-.5,2.3-1,3.4-1.5-.8-2.2-1.8-4.6-3.1-7.1-2.4,1.2-4.9,2.4-7.2,3.7,2.5,2.1,4.8,3.7,6.9,4.9ZM575.3,130.1c2.5-1.1,5.1-2.1,7.7-3.1,0-2.4-.5-5.1-1.4-8.2-3.2,1.3-6.4,2.7-9.5,4.2,1.3,2.5,2.3,4.9,3.1,7.1ZM582.9,129.3c-2.3.9-4.7,1.8-6.9,2.8.4,1.1.6,2.1.9,3.1,3.5.2,5.6-2,6-5.9ZM573.9,133.1c-.6.3-1.2.5-1.7.8.6.3,1.1.5,1.6.7.2,0,.4.1.6.2-.1-.5-.3-1.1-.5-1.7ZM522.5,236.8h0c0,.1.1.2,0,0ZM749,57.8c-11.8,30.7-33.3,51.1-80.7,40.6h0c-10.8-2.3-21.5-3.2-31.9-2.8-20.1.6-39.2,5.6-56.3,12.9,1.2,2.6,2.3,5.1,3,7.4,18.3-7.1,38.7-11.7,59.7-11.6,8.6,0,17.2.8,25.9,2.5h0c49.7,10.1,69.4-14.8,80.2-49.1ZM512.6,165.3c-.2-.3-.4-.6-.6-.9-.7,1.4-1.3,2.8-1.8,4,.7-1,1.5-2.1,2.3-3.1ZM514.1,163.5c1.2-1.5,2.5-3,3.9-4.5-.6-.5-1.2-1-1.8-1.6-1,1.4-1.9,2.8-2.6,4.1,0,.4,0,.7,0,1,.2.3.4.6.5.9ZM519.5,157.4c.2-.2.5-.5.7-.7-.5-.8-1.1-1.6-1.7-2.5-.4.5-.7,1-1.1,1.4.7.6,1.4,1.2,2,1.8ZM521.8,155.1c2.1-2.1,4.4-4.2,6.8-6.3-.8-1.1-1.6-2.2-2.5-3.4-2.2,2.4-4.3,4.7-6.1,7,.6.9,1.2,1.8,1.8,2.7ZM531.8,146c1.9-1.6,3.9-3.1,5.9-4.7-1-1.3-2.1-2.6-3.2-4-2.1,1.9-4.1,3.7-6,5.6,1.1,1,2.2,2.1,3.2,3.1ZM539.5,140c1.2-.9,2.4-1.7,3.6-2.6-1.2-1.4-2.4-2.8-3.8-4.2-1.1.9-2.1,1.7-3.1,2.6,1.1,1.4,2.2,2.8,3.3,4.1ZM544.9,136.1c1-.7,1.9-1.3,2.9-1.9-1.3-1.4-2.6-2.9-4-4.5-1,.7-1.9,1.4-2.8,2.2,1.4,1.4,2.6,2.9,3.9,4.3ZM549.7,133c2.1-1.4,4.3-2.7,6.6-4-1.2-1.7-2.5-3.5-4-5.3-.5.3-.9.6-1.4.9-1.8,1.2-3.6,2.5-5.3,3.8,1.4,1.7,2.8,3.2,4.1,4.6ZM558.2,127.9c.3-.2.7-.4,1-.5-1.6-1.4-3.3-3-5-4.8,1.4,1.8,2.8,3.6,4,5.3ZM561.2,126.2c2.6-1.4,5.2-2.8,7.9-4.1-1.1-2.1-2.4-4.2-3.8-6.4-3.2,1.8-6.3,3.6-9.4,5.5,1.8,1.8,3.5,3.5,5.2,4.9ZM571.2,121.1c3.2-1.5,6.5-2.9,9.8-4.3-.8-2.3-1.8-4.8-3-7.4-3.7,1.6-7.2,3.4-10.7,5.2,1.4,2.2,2.7,4.4,3.8,6.5ZM521.5,158.5c-.1.1-.2.2-.4.4.6.5,1.1,1,1.7,1.5-.4-.6-.9-1.2-1.3-1.9ZM749.7,48.7c-11.8,30.6-33.9,50.7-81.5,39.4h0c-13.4-3.1-26.4-3.9-38.9-3.1-19.7,1.4-38,7.1-54,14.9,1.4,2.3,2.7,4.6,3.8,6.8,17.2-7.4,36.6-12.5,57.1-13.1,10.6-.3,21.5.6,32.5,2.9h0c49.9,11,70.2-13.5,80.9-47.8ZM515.7,154.3c.5-.6,1-1.3,1.5-1.9-.2-.3-.4-.6-.6-.9-.5.9-.9,1.8-1.2,2.6l.3.3ZM518.7,150.5c1.9-2.2,3.9-4.5,6.1-6.9-.6-.8-1.1-1.6-1.7-2.4-1.9,2.5-3.6,5-4.9,7.4,0,.4,0,.8,0,1.2.2.2.3.5.5.7ZM527,141.4c2-1.9,4-3.9,6.2-5.8-.8-1.1-1.7-2.2-2.5-3.3-2.2,2.4-4.3,4.7-6.1,7,.8.7,1.6,1.4,2.4,2.1ZM534.9,134.1c1-.8,1.9-1.6,2.9-2.4-1.1-1.1-2.2-2.2-3.3-3.3-.8.7-1.5,1.5-2.2,2.2.9,1.2,1.8,2.4,2.6,3.5ZM539.5,130.3c1-.8,1.9-1.5,2.9-2.2-1.1-1.3-2.2-2.6-3.3-4-1.1.9-2.1,1.9-3.1,2.8,1.2,1.1,2.3,2.3,3.5,3.4ZM544.2,126.7c1.7-1.3,3.5-2.5,5.3-3.7.5-.3,1-.6,1.4-1-1.2-1.5-2.5-3-3.9-4.5-2.1,1.7-4.2,3.4-6.2,5.1,1.1,1.4,2.3,2.8,3.4,4.1ZM554.5,119.7c3.1-2,6.4-3.9,9.7-5.7-1.2-1.8-2.6-3.7-4.1-5.6-3,1.9-5.8,3.8-8.5,5.8-.4.3-.9.6-1.3.9,1.4,1.7,2.8,3.2,4.2,4.6ZM566.2,112.9c3.5-1.9,7.2-3.7,10.9-5.3-1.1-2.2-2.4-4.4-3.8-6.7-3.9,2-7.7,4.1-11.3,6.3,1.5,1.9,2.9,3.8,4.2,5.7ZM750.4,39.5c-11.9,30.5-34.6,50.3-82.2,38.1-16.3-4.1-31.9-4.7-46.5-2.9-19.3,2.3-36.8,8.9-51.7,17.3,1.4,1.8,2.6,3.7,3.8,5.5.2.2.3.4.4.6,16.3-8,34.9-13.7,55-15.2,12.7-.9,26,0,39.6,3.1h0c50.1,12,71-12.3,81.6-46.5ZM519.4,142.5c.7-1,1.4-1.9,2.1-2.9-.2-.2-.5-.4-.7-.6-.6,1.2-1.1,2.4-1.5,3.5ZM523.2,137.4c1.9-2.3,3.9-4.6,6.1-6.9-.6-.8-1.2-1.6-1.7-2.4-1.9,2.6-3.6,5.1-4.9,7.4,0,.5,0,1,.1,1.4.1.2.3.4.4.5ZM531,128.8c.6-.6,1.3-1.3,1.9-1.9-.8-.8-1.7-1.5-2.5-2.3-.4.5-.9,1.1-1.3,1.6.6.9,1.3,1.8,1.9,2.6ZM534.5,125.4c1.1-1,2.2-2,3.3-3-.8-1.1-1.7-2.2-2.5-3.3-1.2,1.3-2.4,2.6-3.5,3.9.9.8,1.8,1.6,2.7,2.5ZM539.5,120.9c1.9-1.7,4-3.3,6-4.9-1.1-1.2-2.3-2.4-3.5-3.6-1.8,1.7-3.6,3.4-5.2,5,.9,1.2,1.8,2.4,2.7,3.5ZM548.9,113.4c.4-.3.8-.6,1.3-.9,2.8-2,5.7-4,8.7-5.8-1.3-1.6-2.6-3.2-4.1-4.8-.9.6-1.7,1.3-2.5,1.9-2.4,1.8-4.6,3.7-6.8,5.5,1.2,1.4,2.3,2.8,3.5,4.1ZM560.7,105.5c3.7-2.2,7.5-4.4,11.5-6.4-.1-.2-.3-.4-.4-.6-1.2-1.8-2.4-3.6-3.8-5.4-4.1,2.4-7.9,4.8-11.5,7.4,1.5,1.7,2.9,3.3,4.2,4.9ZM751.2,30.3c-11.9,30.5-35.1,50-83,36.9h0c-19.7-5.3-38.2-5.5-55-2.3-18.7,3.5-35.2,11.1-48.9,20.1,1.5,1.8,3,3.5,4.3,5.3,15.2-8.6,33.1-15.3,52.7-17.7,14.9-1.8,30.8-1.2,47.5,3h0c49.3,12.7,70.9-10.2,81.7-43.3.2-.7.4-1.4.7-2.1ZM524,129.4c.7-1.1,1.5-2.1,2.4-3.2-.2-.3-.4-.6-.6-.9-.7,1.4-1.3,2.8-1.7,4.1ZM527.8,124.3c.3-.4.6-.8.9-1.2-.4-.4-.8-.7-1.3-1.1,0,.1-.1.2-.2.3,0,.6.1,1.2.3,1.6,0,.1.2.2.2.3ZM530.1,121.5c1.2-1.4,2.5-2.8,3.8-4.2-.6-.8-1.2-1.6-1.7-2.4-1.3,1.8-2.5,3.6-3.6,5.3.5.4,1,.9,1.5,1.3ZM535.5,115.6c1.6-1.6,3.2-3.2,4.9-4.8-.9-.9-1.9-1.8-2.8-2.6-1.4,1.6-2.7,3.2-4,4.8.6.9,1.3,1.7,1.9,2.6ZM542,109.3c.1,0,.2-.2.3-.3-.9-1.1-1.7-2.2-2.6-3.3-.2.3-.5.5-.7.8,1,.9,2,1.9,3,2.8ZM544,107.6c2.1-1.8,4.3-3.6,6.7-5.4.8-.7,1.7-1.3,2.6-1.9-1.2-1.3-2.5-2.6-3.8-3.9-3,2.6-5.7,5.2-8.2,7.8.9,1.2,1.8,2.4,2.7,3.5ZM555.1,99c3.7-2.6,7.6-5.1,11.7-7.5-1.3-1.7-2.7-3.4-4.2-5.2-3.5,2.4-6.7,4.9-9.8,7.4-.5.4-1,.8-1.5,1.3,1.4,1.4,2.7,2.7,3.9,4.1ZM543.7,110.8h-.1c.4.5.7.8,1.1,1.2-.3-.4-.6-.8-1-1.2ZM752,21c-12,30.5-35.7,49.8-83.8,35.8-23.8-6.9-45.6-6-64.5-.8-17.6,4.8-32.8,13.4-44.9,23,1.4,1.5,2.8,3,4.1,4.4,13.9-9.3,30.8-17,49.8-20.5,17.1-3.2,36-3,56.1,2.4h0c48.3,13.3,70.6-8,81.7-39.7.5-1.5,1-3,1.5-4.5ZM528.5,116.2c.7-1.1,1.5-2.1,2.3-3.2-.2-.3-.4-.6-.6-.8-.6,1.3-1.2,2.6-1.6,3.8,0,0,0,.2,0,.3ZM532.2,111.1c1.1-1.5,2.4-2.9,3.7-4.4-.6-.5-1.1-1-1.7-1.5-.9,1.4-1.7,2.7-2.4,4,0,.7.2,1.3.4,1.8h0ZM537.4,105.1c.3-.4.7-.7,1-1.1-.6-.8-1.2-1.5-1.8-2.3-.4.6-.8,1.2-1.2,1.8.7.6,1.3,1.1,2,1.7ZM540,102.4c2.5-2.5,5.1-5.1,8-7.6-1-1-2.1-2-3.2-3-2.5,2.7-4.8,5.4-6.8,8,.6.9,1.3,1.7,1.9,2.6ZM549.6,93.3c.5-.4,1-.8,1.5-1.2,3.1-2.6,6.4-5.1,10-7.5-1.3-1.4-2.6-2.9-4-4.3-1.4,1.1-2.7,2.3-4,3.5-2.4,2.1-4.6,4.3-6.7,6.5,1.1,1,2.2,2.1,3.3,3.1ZM752.9,11.6c-12.1,30.5-36.3,49.6-84.7,34.7h0c-29.1-8.9-54.7-6.1-75.5,2.1-15.9,6.3-29.1,15.7-39.1,25.4,1.3,1.2,2.5,2.3,3.6,3.5,12.3-9.8,27.7-18.5,45.7-23.4,19.3-5.3,41.6-6.2,66,.8,47.6,13.8,70.4-6,81.8-36.6.8-2.1,1.5-4.3,2.2-6.5ZM533.5,101.8c0,0,.1.1.2.2.5-.7,1-1.5,1.6-2.2-.1-.2-.3-.4-.4-.6,0,0-.1-.2-.2-.3-.5,1-.9,1.9-1.2,2.8ZM536.7,97.9c1.9-2.5,4.1-5,6.5-7.6-.7-.6-1.4-1.3-2.1-1.9-1.9,2.6-3.5,5.2-4.8,7.6,0,.8.2,1.4.5,1.9ZM544.7,88.8c2.1-2.2,4.3-4.3,6.7-6.5,1.3-1.2,2.7-2.4,4.1-3.5-1.1-1.1-2.3-2.2-3.5-3.3-3.8,3.8-7,7.6-9.8,11.3.8.7,1.6,1.4,2.4,2.1ZM753.7,2.3c-.1.3-.3.7-.4,1-12.3,29.9-37,48.2-85.1,32.6-36.1-11.7-65.9-5-88,7.7-11.2,6.4-20.4,14.4-27.5,22.3-1.2,1.4-2.3,2.7-3.4,4,.9.8,1.9,1.6,2.8,2.4,10.2-9.9,23.6-19.5,39.8-25.8,21.3-8.4,47.4-11.3,77.2-2.2h0c47,14.4,70.3-4.2,81.9-33.9,1-2.7,2-5.4,2.8-8.2ZM539.7,84.5c.3.2.6.5.9.7,2.8-3.7,6.1-7.5,9.9-11.3-.8-.8-1.7-1.5-2.6-2.3-3.5,4.5-6.2,8.9-8.2,12.8ZM537.5,89.6c.6-.8,1.2-1.7,1.8-2.5-.2-.2-.4-.3-.6-.5-.2.4-.4.8-.5,1.3-.3.6-.5,1.2-.7,1.7Z"/>
    </g>
  </g>
</svg>