    <svg xmlns="http://www.w3.org/2000/svg" viewBox="0 0 400 400">
      <g
        fill="#fff"
        transform="translate(-435 -3424) matrix(1.8864 0 0 .57753 435.71 3424.3) matrix(1.2667 0 0 2.065 -347.38 -388.95) matrix(.79241 0 0 1.6263 -1498.2 -788.34)"
      >
        <path d="M2283.9 703.56l5.977-7.463h-2.494l-5.191 6.511v-6.511h-2.022v14.904h2.022v-6.381l6.203 6.381h2.719l-7.214-7.441zM2298.9 711.26c4.427 0 7.865-3.461 7.865-7.679 0-4.24-3.438-7.744-7.865-7.744-4.404 0-7.82 3.504-7.82 7.744 0 4.218 3.416 7.679 7.82 7.679zm0-1.816c-3.258 0-5.776-2.683-5.776-5.862 0-3.201 2.517-5.927 5.776-5.927 3.303 0 5.821 2.726 5.821 5.927 0 3.179-2.517 5.862-5.821 5.862z"></path>
        <path d="M2310 696.1H2312.045V711.004H2310z"></path>
        <path d="M2325.5 707.41l-7.101-11.313h-2.023v14.904h2.045v-11.356l7.146 11.356h1.977v-14.904h-2.045v11.313zM2338.6 711.26c4.427 0 7.865-3.461 7.865-7.679 0-4.24-3.438-7.744-7.865-7.744-4.404 0-7.82 3.504-7.82 7.744 0 4.218 3.416 7.679 7.82 7.679zm0-1.816c-3.258 0-5.775-2.683-5.775-5.862 0-3.201 2.517-5.927 5.775-5.927 3.303 0 5.82 2.726 5.82 5.927.001 3.179-2.516 5.862-5.82 5.862zM2354.1 711.26c3.212 0 5.168-2.141 5.168-4.456 0-2.12-1.573-3.418-4.202-4.088l-2.023-.519c-2.066-.519-2.247-1.557-2.247-2.076 0-1.471 1.438-2.466 2.989-2.466 1.663 0 2.943 1.017 2.943 2.509h2.022c0-2.661-2.181-4.326-4.898-4.326-2.697 0-5.102 1.73-5.102 4.304 0 1.211.518 3.072 3.798 3.829l2 .476c1.303.324 2.674.973 2.674 2.422 0 1.32-1.124 2.574-3.123 2.574-2.068 0-3.371-1.341-3.438-2.661h-2.023c.023 2.315 2.203 4.478 5.462 4.478zM2374.9 711.26c4.404 0 7.325-2.51 7.325-7.722h-6.741v1.709h4.495c0 2.379-2.292 4.197-5.079 4.197-3.258 0-5.798-2.661-5.798-5.862s2.54-5.927 5.798-5.927c1.461 0 2.809.562 3.798 1.406l1.415-1.276a7.847 7.847 0 00-5.213-1.947c-4.404 0-7.843 3.504-7.843 7.744-.001 4.217 3.438 7.678 7.843 7.678zM2395.7 711l-4.113-5.602c2.763-.195 4.044-2.488 4.044-4.651 0-2.315-1.303-4.651-4.673-4.651h-5.821V711h2.044v-5.624h2.001l4.067 5.624h2.451zm-4.697-13.086c1.572 0 2.583 1.168 2.583 2.834 0 1.687-.899 2.834-3.169 2.834h-3.236v-5.667h3.822zM2405.8 711.26c4.427 0 7.865-3.461 7.865-7.679 0-4.24-3.438-7.744-7.865-7.744-4.404 0-7.82 3.504-7.82 7.744 0 4.218 3.416 7.679 7.82 7.679zm0-1.816c-3.258 0-5.775-2.683-5.775-5.862 0-3.201 2.517-5.927 5.775-5.927 3.303 0 5.821 2.726 5.821 5.927 0 3.179-2.518 5.862-5.821 5.862zM2422.4 711.26c3.056 0 5.641-1.947 5.641-5.343v-9.82h-2.044v9.82c0 2.358-1.663 3.461-3.596 3.461-1.932 0-3.595-1.103-3.595-3.461v-9.82h-2.046v9.82c0 3.397 2.584 5.343 5.64 5.343zM2432.2 696.1v14.904h2.044v-5.602h4.113c3.281 0 4.606-2.293 4.606-4.651 0-2.315-1.325-4.651-4.606-4.651h-6.157zm2.044 7.463v-5.646h4.091c1.843 0 2.583 1.449 2.583 2.834 0 1.428-.764 2.812-2.696 2.812h-3.978z"></path>
      </g>
      <path
        fill="#fff"
        d="M652 3546.3l9.179-15.899v10.299a.518.518 0 01-.26.45L652 3546.3zM641.4 3530.4l9.179 15.899-8.822-5.094a.71.71 0 01-.356-.617V3530.4zM660.47 3529.2h-18.358l8.919-5.149a.52.52 0 01.52 0l8.919 5.149z"
        transform="translate(-435 -3424) matrix(1.8864 0 0 .57753 435.71 3424.3) matrix(1.2667 0 0 2.065 -347.38 -388.95) matrix(-.96265 0 0 -4.0957 1180.9 8991.4) matrix(.98447 0 0 .46166 287.39 476.42)"
      ></path>
    </svg>
