<?xml version="1.0" encoding="utf-8"?>
<!-- Generator: Adobe Illustrator 16.0.0, SVG Export Plug-In . SVG Version: 6.00 Build 0)  -->
<!DOCTYPE svg PUBLIC "-//W3C//DTD SVG 1.1//EN" "http://www.w3.org/Graphics/SVG/1.1/DTD/svg11.dtd">
<svg version="1.1" id="Layer_1" xmlns="http://www.w3.org/2000/svg" xmlns:xlink="http://www.w3.org/1999/xlink" x="0px" y="0px"
	 width="400px" height="400px" viewBox="0 0 400 400" enable-background="new 0 0 400 400" xml:space="preserve">
<g>
	<g>
		<path fill="#FFFFFF" d="M9.251,164.339l5.568-18.439c5.344-17.695,13.832-24.197,26.875-20.256
			c11.712,3.538,16.104,14.199,11.74,28.653l-1.805,5.98l20.268,6.119l-4.665,15.451L9.251,164.339z M40.664,156.965l1.204-3.987
			c1.605-5.316,0.973-10.127-5.09-11.961c-5.896-1.781-9.086,1.88-10.692,7.196l-1.205,3.987L40.664,156.965z"/>
		<path fill="#FFFFFF" d="M37.031,94.645l9.914-12.736l38.339,29.85l15.351-19.717l9.449,7.356L84.819,131.85L37.031,94.645z"/>
		<path fill="#FFFFFF" d="M101.042,32.729l17.401-9.426l49.385,42.159l-15.571,8.431l-10.128-9.221l-19.999,10.829l1.961,13.646
			l-14.425,7.813L101.042,32.729z M115.693,39.006l-0.152,0.084l4.416,24.559l13.358-7.236L115.693,39.006z"/>
		<path fill="#FFFFFF" d="M172.014,4.812l20.565-0.326l21.129,40.807l0.174-0.002l-0.909-41.126l14.751-0.235l0.958,60.572
			l-20.047,0.316l-21.828-41.057l-0.172,0.002l1.175,41.384l-14.839,0.234L172.014,4.812z"/>
		<path fill="#FFFFFF" d="M262.36,12.289l39.104,17.143l-4.6,10.491l-24.321-10.661l-5.015,11.444l22.968,10.071l-4.6,10.491
			l-22.97-10.07l-5.506,12.558l25.195,11.047l-4.6,10.491l-39.98-17.529L262.36,12.289z"/>
		<path fill="#FFFFFF" d="M326.794,63.852l-10.608-10.501l8.429-8.507l32.677,32.36l-8.427,8.507L338.261,75.21l-34.193,34.523
			L292.601,98.38L326.794,63.852z"/>
	</g>
	<g>
		<path fill="#FFFFFF" d="M105.053,296.703l13.27,9.196l-14.09,20.329l0.143,0.099l29.071-9.95l15.978,11.072l-34.469,10.433
			l1.392,40.352l-16.91-11.716l0.191-33.343l-0.139-0.1l-15.673,22.618l-13.27-9.196L105.053,296.703z"/>
		<path fill="#FFFFFF" d="M177.309,331.841c19.579,3.886,27.481,17.572,23.697,36.643c-3.748,18.897-16.481,28.669-35.887,24.817
			c-19.411-3.85-27.449-17.742-23.7-36.64C145.203,337.594,157.729,327.957,177.309,331.841z M167.448,381.556
			c9.619,1.907,15.273-6.525,17.216-16.315c2.042-10.301-0.065-19.744-9.683-21.65c-9.622-1.909-15.172,6.014-17.216,16.312
			C155.82,369.694,157.831,379.646,167.448,381.556z"/>
		<path fill="#FFFFFF" d="M210.138,335.481l16.04-1.818l6.812,60.204l-16.041,1.813L210.138,335.481z"/>
		<path fill="#FFFFFF" d="M232.384,335.082l18.807-8.345l35.413,29.299l0.155-0.069l-16.923-37.503l13.487-5.984l24.573,55.381
			l-18.329,8.131l-36.153-29.255l-0.157,0.069l17.271,37.636l-13.571,6.02L232.384,335.082z"/>
		<path fill="#FFFFFF" d="M303.402,289.284c13.254-14.931,29.059-14.825,43.603-1.922c14.406,12.79,16.402,28.718,3.271,43.517
			c-13.14,14.8-29.188,14.714-43.6,1.923C292.136,319.898,290.155,304.214,303.402,289.284z M341.318,322.931
			c6.507-7.334,2.088-16.479-5.376-23.104c-7.854-6.971-17.067-9.925-23.577-2.591c-6.515,7.335-2.482,16.134,5.372,23.104
			C325.203,326.965,334.803,330.266,341.318,322.931z"/>
		<path fill="#FFFFFF" d="M366.182,280.33c3.559-3.128,7.2-7.98,9.512-14.251c1.769-4.805,2.475-9.722-2.085-11.405
			c-10.584-3.902-13.817,25.427-34.496,17.802c-13.677-5.045-12.502-19.779-8.297-31.178c2.011-5.454,4.807-10.528,7.52-13.874
			l11.367,5.303c-3.235,3.246-5.671,7.342-7.26,11.657c-1.41,3.826-3.427,10.298,1.534,12.129
			c9.203,3.394,12.925-25.757,33.44-18.191c14.737,5.435,14.165,19.281,9.512,31.9c-1.952,5.293-5.198,11.589-8.69,16.034
			L366.182,280.33z"/>
	</g>
	<g>
		<g>
			<path fill="#FFFFFF" d="M281.875,245.749l-66.583,38.439v-32.007l33.246-19.193c1.091-0.632,2.035-1.445,2.841-2.367
				c-11.299,4.038-22.93,7.995-34.79,11.814c-9.269,2.985-18.473,5.823-27.553,8.504l2.154,1.242v32.007l-39.677-22.906
				c-11.867,3.029-23.341,5.717-34.291,8.033l79.95,46.158c0.197,0.118,0.404,0.228,0.613,0.333c0.137,0.072,0.276,0.141,0.42,0.205
				c0.104,0.049,0.212,0.097,0.316,0.142c0.227,0.098,0.459,0.188,0.691,0.269c0.222,0.08,0.445,0.148,0.671,0.217
				c0.015,0.006,0.032,0.008,0.05,0.013c0.01,0.003,0.02,0.005,0.029,0.008c0.416,0.121,0.839,0.215,1.271,0.286
				c0.641,0.111,1.29,0.169,1.941,0.169h0.132c0.588,0,1.174-0.045,1.749-0.137c0.16-0.027,0.318-0.054,0.479-0.086
				c0.162-0.03,0.329-0.064,0.491-0.104c0.393-0.094,0.783-0.204,1.164-0.338c0.054-0.021,0.107-0.037,0.162-0.057
				c0.42-0.154,0.831-0.329,1.23-0.526c0.232-0.116,0.459-0.235,0.682-0.363l90.642-52.339c3.745-2.139,6.068-6.148,6.068-10.458
				V209.3c-7.719,3.307-15.77,6.609-24.102,9.886V245.749z"/>
			<path fill="#FFFFFF" d="M124.611,168.866l27.712,16.002v37.918c0,2.342,0.715,4.593,1.952,6.512
				c9.525-2.292,19.901-5.044,31.096-8.308l-8.938-5.159v-17.046l14.757,8.521v11.964c5.271-1.579,10.693-3.258,16.303-5.064
				c2.65-0.854,5.241-1.706,7.799-2.557v-4.039l14.764-8.523v7.491c8.653-3.067,16.684-6.086,24.102-9.028v-12.681l27.718-16.003
				v16.834c9.763-4.53,17.771-8.687,24.102-12.313v-25.393c0-4.315-2.313-8.307-6.055-10.447l-91.065-52.583
				c-3.478-2.005-7.76-2.005-11.234,0l-91.066,52.58c-3.735,2.143-6.054,6.146-6.054,10.45v90.815
				c6.568-0.548,14.621-1.595,24.109-3.261V168.866z M203.238,186.433l-14.756-8.522l14.756-8.522l14.763,8.522L203.238,186.433z
				 M203.238,109.552l66.585,38.441l-27.718,16.003l-33.249-19.197c-1.738-1.003-3.678-1.504-5.618-1.504
				c-1.941,0-3.877,0.502-5.616,1.504l-33.249,19.194l-27.713-16L203.238,109.552z"/>
		</g>
		<g>
			<path fill="#FFFFFF" d="M312.125,160.792c2.905-2.234,21.327-3.678,22.365-0.45c3.858,11.983-51.286,40.464-123.173,63.621
				c-71.885,23.154-133.287,32.211-137.151,20.23c-1.376-4.273,7.122-8.408,18.843-15.892l-0.04-18.187
				c-46.983,21.221-76.021,40.856-72.618,51.414c5.454,16.937,92.246,4.131,193.855-28.599
				c101.606-32.728,179.554-72.99,174.1-89.924c-3.197-9.924-36.289-9.591-76.411,1.481L312.125,160.792z"/>
		</g>
	</g>
</g>
</svg>
