<svg width="99" xmlns="http://www.w3.org/2000/svg" height="99" fill="none"><g xmlns:xlink="http://www.w3.org/1999/xlink" xml:space="preserve" data-testid="arrow" style="fill: rgb(0, 0, 0);"><g data-testid="svg-path"><path d="M44.775 46.62c4.32 0 7.83 3.465 7.83 7.74s-3.51 7.74-7.83 7.74-7.83-3.465-7.83-7.74 3.51-7.74 7.83-7.74Zm0-9.405c9.54 0 17.28 7.65 17.28 17.1 0 9.45-7.74 17.1-17.28 17.1-9.54 0-17.28-7.65-17.28-17.1 0-9.405 7.74-17.1 17.28-17.1Zm0-9.36c14.76 0 26.73 11.835 26.73 26.46s-11.97 26.46-26.73 26.46-26.73-11.835-26.73-26.46c0-14.58 11.97-26.46 26.73-26.46Z" style="fill-rule: nonzero; clip-rule: evenodd; stroke-miterlimit: 2.6131; fill: none;" class="fills"/><g class="strokes" style="fill-rule: nonzero; clip-rule: evenodd; stroke-miterlimit: 2.6131; fill: none;"><path d="M44.775 46.62c4.32 0 7.83 3.465 7.83 7.74s-3.51 7.74-7.83 7.74-7.83-3.465-7.83-7.74 3.51-7.74 7.83-7.74Zm0-9.405c9.54 0 17.28 7.65 17.28 17.1 0 9.45-7.74 17.1-17.28 17.1-9.54 0-17.28-7.65-17.28-17.1 0-9.405 7.74-17.1 17.28-17.1Zm0-9.36c14.76 0 26.73 11.835 26.73 26.46s-11.97 26.46-26.73 26.46-26.73-11.835-26.73-26.46c0-14.58 11.97-26.46 26.73-26.46Z" style="fill: none; stroke-width: 4.03; stroke: rgb(255, 255, 255); stroke-opacity: 1;" class="stroke-shape"/></g></g><g data-testid="svg-path"><path d="m71.235 19.62.495 8.01 8.1.495L67.68 40.14l-8.055-.495-.495-8.01L71.235 19.62Z" style="fill-rule: evenodd; clip-rule: evenodd; stroke-miterlimit: 2.6131; fill: rgb(255, 255, 255);" class="fills"/><g class="strokes" style="fill-rule: evenodd; clip-rule: evenodd; stroke-miterlimit: 2.6131;"><path d="m71.235 19.62.495 8.01 8.1.495L67.68 40.14l-8.055-.495-.495-8.01L71.235 19.62Z" style="fill: none; stroke-width: 4.03; stroke: rgb(255, 255, 255); stroke-opacity: 1;" class="stroke-shape"/></g></g><g data-testid="svg-g" style="fill: rgb(0, 0, 0);"><g data-testid="svg-rect"><rect rx="0" ry="0" x="41.715" y="46.1" transform="rotate(-44.733 52.155 47)" width="20.88" height="1.8" style="fill-rule: evenodd; clip-rule: evenodd; stroke-miterlimit: 10; fill: rgb(255, 255, 255);" class="fills"/><g class="strokes" style="fill-rule: evenodd; clip-rule: evenodd; stroke-miterlimit: 10;"><rect rx="0" ry="0" x="41.715" y="46.1" transform="rotate(-44.733 52.155 47)" width="20.88" height="1.8" style="fill: none; stroke-width: 1; stroke: rgb(255, 255, 255); stroke-opacity: 1;" class="stroke-shape"/></g></g></g></g></svg>