<svg width="102" xmlns="http://www.w3.org/2000/svg" height="102" fill="none"><g xmlns:xlink="http://www.w3.org/1999/xlink" xml:space="preserve" data-testid="light" style="fill: rgb(0, 0, 0);"><rect rx="0" ry="0" x="47.662" y="86.654" width="6.676" height="1.855" style="fill-rule: evenodd; clip-rule: evenodd; stroke-linejoin: round; stroke-miterlimit: 2; fill: rgb(255, 255, 255);" class="fills" data-testid="svg-rect"/><rect rx="0" ry="0" x="44.231" y="83.084" width="13.585" height="1.855" style="fill-rule: evenodd; clip-rule: evenodd; stroke-linejoin: round; stroke-miterlimit: 2; fill: rgb(255, 255, 255);" class="fills" data-testid="svg-rect"/><rect rx="0" ry="0" x="44.231" y="79.56" width="13.585" height="1.855" style="fill-rule: evenodd; clip-rule: evenodd; stroke-linejoin: round; stroke-miterlimit: 2; fill: rgb(255, 255, 255);" class="fills" data-testid="svg-rect"/><path d="M58.047 77.937H43.999l-.093-.788c-.973-7.14-3.57-10.246-6.073-13.26-2.875-3.431-5.61-6.723-5.61-15.022 0-10.292 8.438-18.638 18.823-18.638 10.386 0 18.824 8.346 18.824 18.638 0 8.346-2.735 11.591-5.61 15.022-2.504 3.014-5.1 6.12-6.074 13.26l-.139.788Z" style="fill-rule: nonzero; clip-rule: evenodd; stroke-linejoin: round; stroke-miterlimit: 2; fill: rgb(255, 255, 255);" class="fills" data-testid="svg-path"/><path d="M45.622 76.083h10.803c1.112-7.094 3.894-10.432 6.351-13.399 2.782-3.339 5.193-6.213 5.193-13.863 0-9.226-7.604-16.784-16.923-16.784-9.319 0-16.922 7.511-16.922 16.784 0 7.65 2.411 10.524 5.192 13.816 2.411 3.014 5.193 6.352 6.306 13.446Z" style="fill-rule: nonzero; clip-rule: evenodd; stroke-linejoin: round; stroke-miterlimit: 2; fill: rgb(255, 255, 255);" class="fills" data-testid="svg-path"/><g data-testid="svg-g" style="fill: rgb(0, 0, 0);"><rect rx="0" ry="0" x="70.429" y="62.394" transform="rotate(-45.267 71.356 68.77)" width="1.855" height="12.75" style="fill-rule: evenodd; clip-rule: evenodd; stroke-linejoin: round; stroke-miterlimit: 2; fill: rgb(255, 255, 255);" class="fills" data-testid="svg-rect"/></g><g data-testid="svg-g" style="fill: rgb(0, 0, 0);"><rect rx="0" ry="0" x="24.285" y="67.849" transform="rotate(-44.733 30.66 68.776)" width="12.75" height="1.855" style="fill-rule: evenodd; clip-rule: evenodd; stroke-linejoin: round; stroke-miterlimit: 2; fill: rgb(255, 255, 255);" class="fills" data-testid="svg-rect"/></g><path d="M62.498 51.788c-.417 0-.881-.093-1.344-.278-1.252-.464-1.901-2.365-2.829-5.054-1.159-3.384-2.596-7.65-5.239-8.206l.371-1.762-.092-.695c3.152-.464 6.722.742 9.133 3.013 1.994 1.901 2.967 4.359 2.736 6.909-.047.463-.047.927-.093 1.344-.093 1.855-.186 3.57-1.391 4.358a2.33 2.33 0 0 1-1.252.371Z" style="fill-rule: nonzero; clip-rule: evenodd; stroke-linejoin: round; stroke-miterlimit: 2; fill: rgb(255, 255, 255);" class="fills" data-testid="svg-path"/><path d="M55.775 37.647c2.133 1.855 3.339 5.332 4.312 8.253.51 1.53 1.252 3.616 1.716 3.895.51.185.788.185.927.092.417-.278.51-1.854.556-2.921.047-.463.047-.973.093-1.437.186-1.947-.603-3.894-2.179-5.378a9.637 9.637 0 0 0-5.425-2.504Z" style="fill-rule: nonzero; clip-rule: evenodd; stroke-linejoin: round; stroke-miterlimit: 2; fill: rgb(255, 255, 255);" class="fills" data-testid="svg-path"/><rect rx="0" ry="0" x="73.347" y="47.708" width="12.843" height="1.855" style="fill-rule: evenodd; clip-rule: evenodd; stroke-linejoin: round; stroke-miterlimit: 2; fill: rgb(255, 255, 255);" class="fills" data-testid="svg-rect"/><rect rx="0" ry="0" x="15.856" y="47.708" width="12.843" height="1.855" style="fill-rule: evenodd; clip-rule: evenodd; stroke-linejoin: round; stroke-miterlimit: 2; fill: rgb(255, 255, 255);" class="fills" data-testid="svg-rect"/><g data-testid="svg-g" style="fill: rgb(0, 0, 0);"><rect rx="0" ry="0" x="29.767" y="22.106" transform="rotate(-45.267 30.695 28.48)" width="1.855" height="12.75" style="fill-rule: evenodd; clip-rule: evenodd; stroke-linejoin: round; stroke-miterlimit: 2; fill: rgb(255, 255, 255);" class="fills" data-testid="svg-rect"/></g><g data-testid="svg-g" style="fill: rgb(0, 0, 0);"><rect rx="0" ry="0" x="64.951" y="27.561" transform="rotate(-44.733 71.326 28.489)" width="12.75" height="1.855" style="fill-rule: evenodd; clip-rule: evenodd; stroke-linejoin: round; stroke-miterlimit: 2; fill: rgb(255, 255, 255);" class="fills" data-testid="svg-rect"/></g><rect rx="0" ry="0" x="50.073" y="13.77" width="1.855" height="12.704" style="fill-rule: evenodd; clip-rule: evenodd; stroke-linejoin: round; stroke-miterlimit: 2; fill: rgb(255, 255, 255);" class="fills" data-testid="svg-rect"/></g></svg>