<svg width="91" xmlns="http://www.w3.org/2000/svg" height="91" fill="none"><g xmlns:xlink="http://www.w3.org/1999/xlink" xml:space="preserve" data-testid="speaker" style="fill: rgb(0, 0, 0);"><path d="M22.212 76.357c-3.267 0-6.535-2.151-6.535-6.246V56.916h1.654v13.195c0 3.144 2.524 4.55 4.881 4.55 2.358 0 4.757-1.406 4.757-4.55V54.517h1.655v15.594c.041 4.302-3.309 6.246-6.412 6.246Z" style="fill-rule: nonzero; clip-rule: evenodd; stroke-linejoin: round; stroke-miterlimit: 2; fill: rgb(255, 255, 255);" class="fills" data-testid="svg-path"/><path d="M58.943 72.8c-1.158 0-2.73-.165-3.474-1.406l-.993-1.738c-3.475-6.163-7.404-13.153-22.254-16.462H14.436c-1.779 0-3.268-1.448-3.268-3.227V37.724c0-1.779 1.448-3.227 3.268-3.227h17.828c14.849-3.309 18.779-10.299 22.253-16.462l.993-1.738c.745-1.241 2.316-1.406 3.475-1.406 1.24 0 2.399.414 3.309 1.199.992.869 1.53 2.11 1.53 3.558v48.354c0 1.448-.538 2.688-1.53 3.557-.91.827-2.069 1.241-3.351 1.241Z" style="fill-rule: nonzero; clip-rule: evenodd; stroke-linejoin: round; stroke-miterlimit: 2; fill: rgb(255, 255, 255);" class="fills" data-testid="svg-path"/><path d="M33.174 51.705c15.097 3.515 19.192 10.754 22.791 17.124l.993 1.737c.207.373.91.579 2.027.579.827 0 1.613-.289 2.192-.785.62-.538.951-1.365.951-2.317V19.648c0-.952-.331-1.779-.951-2.317a3.385 3.385 0 0 0-2.192-.786c-1.117 0-1.82.207-2.027.58l-.993 1.737c-3.64 6.37-7.694 13.608-22.791 17.124v15.719ZM14.436 36.152c-.869 0-1.572.703-1.572 1.572v12.243c0 .869.703 1.572 1.572 1.572h17.083V36.152H14.436ZM22.171 72.055c-1.903 0-3.806-1.282-3.806-3.764V56.916h1.655v11.375c0 1.448 1.075 2.11 2.151 2.11 1.075 0 2.151-.662 2.151-2.11V54.517h1.654v13.774c0 2.482-1.902 3.764-3.805 3.764ZM73.793 58.323l-1.158-1.2c3.598-3.557 5.542-8.273 5.542-13.278 0-5.005-1.985-9.761-5.542-13.277l1.158-1.2a20.274 20.274 0 0 1 6.039 14.477c.041 5.46-2.11 10.631-6.039 14.478Z" style="fill-rule: nonzero; clip-rule: evenodd; stroke-linejoin: round; stroke-miterlimit: 2; fill: rgb(255, 255, 255);" class="fills" data-testid="svg-path"/><path d="m72.304 52.49-1.159-1.199c1.986-1.986 3.103-4.633 3.103-7.446 0-2.812-1.117-5.46-3.103-7.445l1.159-1.2c2.316 2.317 3.598 5.378 3.598 8.645.042 3.268-1.241 6.329-3.598 8.645ZM68.953 48.52l-1.158-1.2c.951-.91 1.448-2.151 1.448-3.475 0-1.323-.497-2.564-1.448-3.474l1.158-1.2a6.571 6.571 0 0 1 1.944 4.674 6.572 6.572 0 0 1-1.944 4.675Z" style="fill-rule: nonzero; clip-rule: evenodd; stroke-linejoin: round; stroke-miterlimit: 2; fill: rgb(255, 255, 255);" class="fills" data-testid="svg-path"/></g></svg>